<svg width="34" height="34" viewBox="0 0 34 34" fill="none" xmlns="http://www.w3.org/2000/svg">
<path d="M0.0078125 24.6334V31.8334C0.0078125 32.5534 0.583812 33.2734 1.44781 33.2734H7.63981C8.35981 33.2734 9.07981 32.6974 9.07981 31.8334V24.6334C9.07981 23.9134 8.50381 23.1934 7.63981 23.1934H1.44781C0.727812 23.1934 0.0078125 23.9134 0.0078125 24.6334Z" fill="url(#paint0_linear_665_6858)"/>
<path d="M32.5519 13.5449H26.3599C25.6399 13.5449 24.9199 14.1209 24.9199 14.9849V31.8329C24.9199 32.5529 25.4959 33.2729 26.3599 33.2729H32.5519C33.2719 33.2729 33.9919 32.6969 33.9919 31.8329V14.9849C33.9919 14.2649 33.2719 13.5449 32.5519 13.5449Z" fill="url(#paint1_linear_665_6858)"/>
<path d="M20.1672 33.272C20.8872 33.272 21.6072 32.696 21.6072 31.832V20.024C21.6072 19.304 21.0312 18.584 20.1672 18.584H13.9752C13.2552 18.584 12.5352 19.16 12.5352 20.024V31.832C12.5352 32.552 13.1112 33.272 13.9752 33.272H20.1672Z" fill="url(#paint2_linear_665_6858)"/>
<path d="M27.2228 8.79252C27.3668 9.08052 27.7988 9.22452 28.0868 9.36852H28.5188C29.0948 9.36852 29.5268 8.93652 29.6708 8.36052L31.5428 2.60052C31.6868 2.16852 31.6868 1.73652 31.3988 1.30452C31.1108 0.872516 30.6788 0.728516 30.2468 0.728516H24.1988C23.6228 0.728516 23.1908 1.01652 22.9028 1.44852C22.6148 1.88052 22.7588 2.45652 23.0468 2.88852L24.1988 4.47252L4.18281 17.7205C3.46281 18.1525 3.31881 19.0165 3.75081 19.7365C4.18281 20.4565 5.04681 20.6005 5.76681 20.1685L25.9268 6.92052L27.2228 8.79252Z" fill="url(#paint3_linear_665_6858)"/>
<defs>
<linearGradient id="paint0_linear_665_6858" x1="0.00781244" y1="28.2334" x2="9.98827" y2="28.1279" gradientUnits="userSpaceOnUse">
<stop stop-color="#118E97"/>
<stop offset="0.9999" stop-color="#30BFCA"/>
<stop offset="1" stop-color="#30C7D2"/>
</linearGradient>
<linearGradient id="paint1_linear_665_6858" x1="24.9199" y1="23.4089" x2="34.9012" y2="23.355" gradientUnits="userSpaceOnUse">
<stop stop-color="#118E97"/>
<stop offset="0.9999" stop-color="#30BFCA"/>
<stop offset="1" stop-color="#30C7D2"/>
</linearGradient>
<linearGradient id="paint2_linear_665_6858" x1="12.5352" y1="25.928" x2="22.5162" y2="25.8556" gradientUnits="userSpaceOnUse">
<stop stop-color="#118E97"/>
<stop offset="0.9999" stop-color="#30BFCA"/>
<stop offset="1" stop-color="#30C7D2"/>
</linearGradient>
<linearGradient id="paint3_linear_665_6858" x1="3.50781" y1="10.57" x2="34.449" y2="10.0509" gradientUnits="userSpaceOnUse">
<stop stop-color="#118E97"/>
<stop offset="0.9999" stop-color="#30BFCA"/>
<stop offset="1" stop-color="#30C7D2"/>
</linearGradient>
</defs>
</svg>
