<svg width="22" height="22" viewBox="0 0 22 22" fill="none" xmlns="http://www.w3.org/2000/svg">
<circle cx="11" cy="11" r="10.25" fill="#FF3636" stroke="white" stroke-width="1.5"/>
<g clip-path="url(#clip0_548_8741)">
<path d="M11.8692 11.006C12.7666 11.9048 13.6392 12.7789 14.5125 13.6536C14.6827 13.8245 14.8577 13.9911 15.0224 14.1674C15.2904 14.4553 15.2952 14.8066 15.0436 15.0529C14.7919 15.2992 14.4407 15.2944 14.1588 15.0143C13.1884 14.0509 12.2247 13.082 11.2609 12.1119C11.1842 12.0346 11.1287 11.9362 11.0243 11.7962C10.6049 12.229 10.2464 12.6051 9.8813 12.9739C9.23798 13.6241 8.59044 14.27 7.9441 14.9177C7.88737 14.9745 7.83125 15.033 7.76848 15.0831C7.50657 15.2908 7.17525 15.2739 6.95015 15.0451C6.72445 14.8151 6.70272 14.477 6.92782 14.2277C7.1837 13.9446 7.46191 13.6814 7.73228 13.4116C8.46491 12.6799 9.19876 11.9495 9.93079 11.2173C9.99355 11.1545 10.0509 11.0857 10.1728 10.9517C9.89398 10.6975 9.61335 10.4579 9.35084 10.1989C8.59104 9.45155 7.8397 8.69577 7.08533 7.9436C7.04249 7.90074 6.99903 7.85909 6.9592 7.81382C6.71479 7.53492 6.71419 7.18782 6.95679 6.94877C7.19939 6.70972 7.55183 6.70428 7.81978 6.96567C8.40939 7.54156 8.98874 8.12832 9.5699 8.71267C10.0364 9.18172 10.4993 9.65499 10.9821 10.1452C11.0883 10.0468 11.1698 9.97614 11.2452 9.90007C12.1758 8.96862 13.1058 8.03596 14.0357 7.10391C14.0997 7.03992 14.1625 6.97352 14.2325 6.91738C14.4938 6.70972 14.8269 6.72722 15.0508 6.95541C15.2753 7.1842 15.297 7.52225 15.0713 7.77277C14.8094 8.06373 14.5246 8.33417 14.247 8.61125C13.5222 9.33625 12.7956 10.0594 12.0702 10.7844C12.0074 10.8472 11.9507 10.916 11.8692 11.006Z" fill="white"/>
</g>
<defs>
<clipPath id="clip0_548_8741">
<rect width="8.46154" height="8.46154" fill="white" transform="translate(6.76953 6.76953)"/>
</clipPath>
</defs>
</svg>
