<svg width="25" height="27" viewBox="0 0 25 27" fill="none" xmlns="http://www.w3.org/2000/svg">
<path fill-rule="evenodd" clip-rule="evenodd" d="M7.08792 0.583984H17.9134C21.9033 0.583984 24.125 2.88315 24.125 6.82273V20.1657C24.125 24.1698 21.9033 26.4173 17.9134 26.4173H7.08792C3.16125 26.4173 0.875 24.1698 0.875 20.1657V6.82273C0.875 2.88315 3.16125 0.583984 7.08792 0.583984ZM7.43689 6.60326V6.59035H11.2977C11.8544 6.59035 12.3065 7.04243 12.3065 7.59656C12.3065 8.16618 11.8544 8.61827 11.2977 8.61827H7.43689C6.88019 8.61827 6.42939 8.16618 6.42939 7.61076C6.42939 7.05535 6.88019 6.60326 7.43689 6.60326ZM7.43689 14.4567H17.5636C18.119 14.4567 18.5711 14.0046 18.5711 13.4492C18.5711 12.8938 18.119 12.4404 17.5636 12.4404H7.43689C6.88019 12.4404 6.42939 12.8938 6.42939 13.4492C6.42939 14.0046 6.88019 14.4567 7.43689 14.4567ZM7.43694 20.3595H17.5636C18.079 20.3078 18.4678 19.8674 18.4678 19.352C18.4678 18.8224 18.079 18.3832 17.5636 18.3316H7.43694C7.04944 18.2928 6.67486 18.4737 6.46819 18.8095C6.26152 19.1324 6.26152 19.5587 6.46819 19.8945C6.67486 20.2174 7.04944 20.4112 7.43694 20.3595Z" fill="white"/>
</svg>
