<svg width="28" height="28" viewBox="0 0 28 28" fill="none" xmlns="http://www.w3.org/2000/svg">
<path fill-rule="evenodd" clip-rule="evenodd" d="M10.9391 23.3659L21.1899 10.1097C21.747 9.39482 21.9451 8.56835 21.7594 7.72682C21.5985 6.9618 21.128 6.2344 20.4223 5.68258L18.7015 4.31557C17.2035 3.12415 15.3465 3.24956 14.2818 4.61657L13.1304 6.11024C12.9819 6.29711 13.019 6.57302 13.2047 6.72351C13.2047 6.72351 16.114 9.0562 16.1759 9.10637C16.374 9.29449 16.5226 9.54532 16.5597 9.84631C16.6216 10.4358 16.2131 10.9876 15.6065 11.0628C15.3217 11.1004 15.0493 11.0127 14.8513 10.8496L11.7934 8.4166C11.6448 8.30498 11.422 8.32881 11.2982 8.4793L4.03099 17.8853C3.56055 18.4748 3.39961 19.2398 3.56055 19.9797L4.48906 24.0055C4.53858 24.2187 4.72428 24.3692 4.94713 24.3692L9.03258 24.319C9.77539 24.3065 10.4687 23.9679 10.9391 23.3659ZM16.6596 22.1121H23.3214C23.9714 22.1121 24.5 22.6476 24.5 23.306C24.5 23.9657 23.9714 24.5 23.3214 24.5H16.6596C16.0097 24.5 15.4811 23.9657 15.4811 23.306C15.4811 22.6476 16.0097 22.1121 16.6596 22.1121Z" fill="black"/>
</svg>
