<svg width="18" height="19" viewBox="0 0 18 19" fill="none" xmlns="http://www.w3.org/2000/svg">
<path d="M9.02937 14.2172C11.0467 14.2172 12.7524 12.9531 13.4537 11.1868H4.60499C5.29765 12.9531 7.01199 14.2172 9.02937 14.2172ZM5.99897 8.58932C6.34342 8.58932 6.67376 8.45249 6.91732 8.20893C7.16088 7.96537 7.29771 7.63503 7.29771 7.29058C7.29771 6.94613 7.16088 6.61579 6.91732 6.37223C6.67376 6.12867 6.34342 5.99184 5.99897 5.99184C5.65452 5.99184 5.32418 6.12867 5.08062 6.37223C4.83706 6.61579 4.70023 6.94613 4.70023 7.29058C4.70023 7.63503 4.83706 7.96537 5.08062 8.20893C5.32418 8.45249 5.65452 8.58932 5.99897 8.58932ZM12.0598 8.58932C12.4042 8.58932 12.7346 8.45249 12.9781 8.20893C13.2217 7.96537 13.3585 7.63503 13.3585 7.29058C13.3585 6.94613 13.2217 6.61579 12.9781 6.37223C12.7346 6.12867 12.4042 5.99184 12.0598 5.99184C11.7153 5.99184 11.385 6.12867 11.1414 6.37223C10.8979 6.61579 10.761 6.94613 10.761 7.29058C10.761 7.63503 10.8979 7.96537 11.1414 8.20893C11.385 8.45249 11.7153 8.58932 12.0598 8.58932ZM9.02937 16.3818C7.19231 16.3818 5.4305 15.652 4.13151 14.353C2.83252 13.054 2.10275 11.2922 2.10275 9.45515C2.10275 7.6181 2.83252 5.85628 4.13151 4.55729C5.4305 3.2583 7.19231 2.52853 9.02937 2.52853C10.8664 2.52853 12.6282 3.2583 13.9272 4.55729C15.2262 5.85628 15.956 7.6181 15.956 9.45515C15.956 11.2922 15.2262 13.054 13.9272 14.353C12.6282 15.652 10.8664 16.3818 9.02937 16.3818ZM9.02937 0.796875C4.24134 0.796875 0.371094 4.6931 0.371094 9.45515C0.371094 11.7515 1.2833 13.9537 2.90704 15.5775C3.71104 16.3815 4.66552 17.0192 5.71599 17.4544C6.76646 17.8895 7.89235 18.1134 9.02937 18.1134C11.3257 18.1134 13.528 17.2012 15.1517 15.5775C16.7754 13.9537 17.6876 11.7515 17.6876 9.45515C17.6876 8.31813 17.4637 7.19224 17.0286 6.14177C16.5935 5.0913 15.9557 4.13682 15.1517 3.33282C14.3477 2.52883 13.3932 1.89107 12.3427 1.45595C11.2923 1.02083 10.1664 0.796875 9.02937 0.796875Z" fill="black" fill-opacity="0.25"/>
</svg>
