<svg width="16" height="16" viewBox="0 0 16 16" fill="none" xmlns="http://www.w3.org/2000/svg">
<g clip-path="url(#clip0_666_3448)">
<path d="M8.61198 11.0598L6.1639 13.508C6.1639 13.508 6.1639 13.508 6.16384 13.508C6.16384 13.508 6.16384 13.5081 6.16378 13.5081C5.15143 14.5205 3.50411 14.5206 2.49164 13.5081C2.00116 13.0176 1.73111 12.3655 1.73111 11.672C1.73111 10.9785 2.00116 10.3265 2.49147 9.83601C2.49153 9.83595 2.49158 9.83589 2.49164 9.83583L4.93972 7.3877C5.27769 7.04967 5.27769 6.5016 4.93966 6.16363C4.60169 5.82566 4.05362 5.82566 3.71559 6.16363L1.26752 8.61177C1.26734 8.61194 1.26717 8.61217 1.267 8.61234C0.449973 9.42966 0 10.5163 0 11.672C0 12.8279 0.450146 13.9147 1.26758 14.7322C2.11132 15.5758 3.21952 15.9977 4.32777 15.9977C5.43603 15.9977 6.54428 15.5758 7.38791 14.7322V14.7321C7.38797 14.7321 7.38797 14.732 7.38797 14.732L9.83604 12.2839C10.174 11.9459 10.174 11.3979 9.83599 11.0598C9.49807 10.7219 8.95006 10.7219 8.61198 11.0598Z" fill="black" fill-opacity="0.27"/>
<path d="M15.9999 4.32765C15.9999 3.17168 15.5497 2.08489 14.7323 1.26746C13.0448 -0.419911 10.2992 -0.419853 8.61193 1.26746C8.61187 1.26757 8.61175 1.26763 8.6117 1.26775L6.16368 3.71571C5.82565 4.05368 5.82565 4.6018 6.16368 4.93977C6.33275 5.10885 6.55422 5.19332 6.77574 5.19332C6.99721 5.19332 7.21879 5.10879 7.38774 4.93977L9.83576 2.49181C9.83582 2.4917 9.83594 2.49164 9.83605 2.49153C10.8484 1.47917 12.4957 1.47912 13.5082 2.49153C13.9986 2.98201 14.2688 3.63411 14.2688 4.32765C14.2688 5.02114 13.9987 5.67313 13.5084 6.16361C13.5083 6.16367 13.5083 6.16373 13.5082 6.16378L11.0601 8.61192C10.7221 8.94989 10.7221 9.49796 11.0602 9.83598C11.2292 10.005 11.4507 10.0895 11.6722 10.0895C11.8937 10.0895 12.1152 10.005 12.2842 9.83598L14.7323 7.38785C14.7325 7.38768 14.7327 7.38745 14.7328 7.38727C15.5499 6.56996 15.9999 5.48334 15.9999 4.32765Z" fill="black" fill-opacity="0.27"/>
<path d="M4.94102 11.0594C5.11003 11.2284 5.33156 11.3129 5.55302 11.3129C5.77455 11.3129 5.99607 11.2284 6.16509 11.0594L11.0614 6.16309C11.3994 5.82512 11.3994 5.27705 11.0614 4.93902C10.7234 4.60105 10.1753 4.60105 9.83729 4.93902L4.94102 9.83523C4.60299 10.1733 4.60299 10.7214 4.94102 11.0594Z" fill="black" fill-opacity="0.27"/>
</g>
<defs>
<clipPath id="clip0_666_3448">
<rect width="16" height="16" fill="white"/>
</clipPath>
</defs>
</svg>
