<svg width="7" height="7" viewBox="0 0 7 7" fill="none" xmlns="http://www.w3.org/2000/svg">
<path d="M2.88738 6.00769C2.85596 5.97708 2.72163 5.86152 2.61113 5.75387C1.91617 5.12277 0.778667 3.47639 0.431458 2.61469C0.375667 2.48382 0.257583 2.15297 0.25 1.97619C0.25 1.80681 0.289 1.64533 0.368083 1.49125C0.478583 1.29917 0.652458 1.14509 0.85775 1.06066C1.00021 1.00631 1.4265 0.921881 1.43408 0.921881C1.90046 0.837452 2.65825 0.791016 3.49567 0.791016C4.29354 0.791016 5.02046 0.837452 5.49388 0.906578C5.50146 0.914493 6.03121 0.998923 6.21267 1.09127C6.54417 1.26065 6.75 1.59151 6.75 1.94559V1.97619C6.74188 2.20679 6.53604 2.69173 6.52846 2.69173C6.18071 3.507 5.099 5.11538 4.38021 5.76179C4.38021 5.76179 4.1955 5.94384 4.08013 6.02299C3.91438 6.14647 3.70908 6.20768 3.50379 6.20768C3.27467 6.20768 3.06125 6.13856 2.88738 6.00769Z" fill="url(#paint0_linear_863_1297)"/>
<defs>
<linearGradient id="paint0_linear_863_1297" x1="0.25" y1="3.49935" x2="7.40028" y2="3.39861" gradientUnits="userSpaceOnUse">
<stop stop-color="#118E97"/>
<stop offset="0.9999" stop-color="#30BFCA"/>
<stop offset="1" stop-color="#30C7D2"/>
</linearGradient>
</defs>
</svg>
