<svg width="32" height="32" viewBox="0 0 32 32" fill="none" xmlns="http://www.w3.org/2000/svg">
<g clip-path="url(#clip0_548_7830)">
<path d="M32 14.625C32 14.92 32 15.083 32 15.2461C32 20.4125 32 25.58 32 30.7465C32 31.7056 31.707 31.9996 30.7519 31.9996C20.918 31.9996 11.085 31.9996 1.25112 31.9996C0.293027 31.9996 0 31.7066 0 30.7495C0 25.583 0 20.4155 0 15.2491C0 15.085 0 14.921 0 14.644C0.205019 14.808 0.342032 14.909 0.470044 15.021C5.3825 19.3014 10.294 23.5819 15.2064 27.8623C15.7955 28.3753 16.2005 28.3793 16.7876 27.8673C21.688 23.5989 26.5875 19.3284 31.487 15.059C31.624 14.942 31.762 14.827 32 14.625Z" fill="#9B9696"/>
<path d="M15.9802 26.0482C14.139 24.437 12.3338 22.8589 10.5287 21.2787C9.63857 20.4997 8.73948 19.7296 7.8694 18.9295C7.71139 18.7845 7.58538 18.5125 7.58438 18.2995C7.56937 12.5669 7.57137 6.83439 7.57438 1.10185C7.57438 0.334781 7.91241 0.00075007 8.66748 0.00075007C13.5499 -0.000250023 18.4324 -0.000250023 23.3159 0.00075007C24.0839 0.00075007 24.426 0.325781 24.427 1.08385C24.431 6.83339 24.432 12.5819 24.42 18.3315C24.42 18.5195 24.3249 18.7665 24.1879 18.8875C21.5527 21.2147 18.9054 23.527 16.2592 25.8412C16.1842 25.9062 16.1012 25.9592 15.9802 26.0482ZM16.0012 9.49964C17.7983 9.49964 19.5955 9.50064 21.3927 9.49864C22.1137 9.49764 22.5628 9.13461 22.5628 8.55955C22.5628 7.9925 22.0987 7.61146 21.3907 7.61146C17.7963 7.60946 14.201 7.60946 10.6067 7.61146C9.89959 7.61146 9.43455 7.9955 9.43555 8.56155C9.43655 9.13561 9.88559 9.49864 10.6077 9.49864C12.4068 9.50064 14.204 9.49964 16.0012 9.49964ZM16.0252 11.3888C14.209 11.3888 12.3928 11.3878 10.5757 11.3898C9.87159 11.3908 9.44755 11.7338 9.43855 12.2999C9.42955 12.864 9.86359 13.247 10.5507 13.248C14.183 13.252 17.8163 13.252 21.4487 13.248C22.1367 13.247 22.5698 12.864 22.5608 12.3009C22.5518 11.7338 22.1287 11.3918 21.4237 11.3908C19.6255 11.3868 17.8253 11.3888 16.0252 11.3888ZM15.9862 17.0003C17.1833 17.0003 18.3814 17.0033 19.5785 16.9993C20.2536 16.9973 20.6966 16.6133 20.6896 16.0523C20.6826 15.4952 20.2346 15.1152 19.5585 15.1142C17.1803 15.1102 14.8011 15.1102 12.4228 15.1142C11.7578 15.1152 11.3047 15.5172 11.3127 16.0723C11.3207 16.6333 11.7598 16.9983 12.4428 16.9993C13.6239 17.0023 14.8051 17.0003 15.9862 17.0003Z" fill="#9B9696"/>
<path d="M1.04688 13.0387C2.59002 11.4316 4.09116 9.86844 5.65631 8.23828C5.65631 11.1826 5.65631 14.0318 5.65631 17.0131C4.05316 15.63 2.50701 14.2969 1.04688 13.0387Z" fill="#9B9696"/>
<path d="M26.3418 8.24023C27.9019 9.87039 29.4001 11.4355 30.9412 13.0447C29.5171 14.2758 27.9669 15.6149 26.3418 17.019C26.3418 14.0508 26.3418 11.1925 26.3418 8.24023Z" fill="#9B9696"/>
</g>
<defs>
<clipPath id="clip0_548_7830">
<rect width="32" height="32" fill="white"/>
</clipPath>
</defs>
</svg>
