<svg width="19" height="15" viewBox="0 0 19 15" fill="none" xmlns="http://www.w3.org/2000/svg">
<g clip-path="url(#clip0_548_9702)">
<path d="M11.6626 8.25286C9.57579 8.25286 7.48842 8.25588 5.40165 8.25104C4.67677 8.24922 4.2143 7.58983 4.46186 6.93165C4.60494 6.5526 4.95164 6.31767 5.3969 6.31646C6.45542 6.31282 7.51336 6.31524 8.57188 6.31524C11.6976 6.31524 14.8227 6.31464 17.9484 6.31585C18.5379 6.31585 18.9594 6.67915 18.9945 7.20594C19.0336 7.79933 18.6044 8.25043 17.9828 8.25165C15.8759 8.25467 13.7695 8.25286 11.6626 8.25286Z" fill="#393D48"/>
<path d="M11.7149 0.253248C13.8218 0.253248 15.9282 0.252037 18.0351 0.254459C18.4709 0.255064 18.8022 0.498478 18.9429 0.899928C19.0717 1.26868 18.9838 1.71433 18.6615 1.93232C18.4525 2.07401 18.1741 2.17149 17.9247 2.17694C16.7385 2.20177 15.5512 2.18845 14.3644 2.18845C11.4465 2.18845 8.5292 2.18845 5.61129 2.18784C5.48305 2.18784 5.35245 2.19147 5.22659 2.17089C4.71602 2.08793 4.36398 1.65318 4.39663 1.15787C4.43047 0.640772 4.83476 0.25567 5.36551 0.254459C6.96784 0.25022 8.57017 0.252642 10.1725 0.252642C10.686 0.253248 11.2007 0.253248 11.7149 0.253248Z" fill="#393D48"/>
<path d="M11.682 14.3128C9.58515 14.3128 7.48829 14.3152 5.39143 14.3115C4.61846 14.3103 4.15302 13.5413 4.52051 12.8813C4.72117 12.5211 5.04413 12.3776 5.43773 12.3776C6.33775 12.377 7.23776 12.377 8.13777 12.377C11.3519 12.377 14.5667 12.377 17.7808 12.3782C17.9186 12.3782 18.0593 12.377 18.194 12.4012C18.7052 12.495 19.0311 12.9225 18.9943 13.4348C18.9587 13.9301 18.5502 14.3097 18.0314 14.3109C15.9149 14.3146 13.7985 14.3128 11.682 14.3128Z" fill="#393D48"/>
<path d="M1.29325 0.000124337C1.99498 0.0104179 2.54769 0.583227 2.54353 1.29591C2.53938 2.01888 1.96232 2.5929 1.24991 2.58261C0.543439 2.57292 -0.0128355 1.98074 0.000225354 1.25231C0.0132862 0.548108 0.589152 -0.00956376 1.29325 0.000124337Z" fill="#393D48"/>
<path d="M1.26097 5.99612C1.98051 5.99188 2.54628 6.56166 2.54391 7.28706C2.54153 8.00034 1.98526 8.56589 1.28234 8.57013C0.564588 8.57315 -0.00118549 8.00277 1.86543e-06 7.27797C0.00178289 6.56529 0.558058 5.99975 1.26097 5.99612Z" fill="#393D48"/>
<path d="M1.28065 14.5661C0.578331 14.5704 0.00840225 14.0073 9.07885e-05 13.3006C-0.00822067 12.5746 0.555178 11.9867 1.26225 11.9824C1.97347 11.9782 2.54637 12.5595 2.5434 13.2825C2.54043 13.9951 1.98356 14.5613 1.28065 14.5661Z" fill="#393D48"/>
</g>
<defs>
<clipPath id="clip0_548_9702">
<rect width="19" height="14.5667" fill="white"/>
</clipPath>
</defs>
</svg>
