<svg width="19" height="19" viewBox="0 0 19 19" fill="none" xmlns="http://www.w3.org/2000/svg">
<g clip-path="url(#clip0_548_9693)">
<path d="M9.52526 6.47237C12.0283 6.47237 14.5313 6.47178 17.0337 6.47237C18.3018 6.47296 18.9988 7.16886 18.9988 8.4324C18.9988 9.15442 18.9988 9.87704 18.9988 10.5991C18.9982 11.8187 18.2888 12.5252 17.0592 12.5258C14.8234 12.527 12.5875 12.5264 10.3517 12.5264C7.52213 12.5264 4.69318 12.5282 1.86363 12.5252C0.916688 12.5241 0.232158 12.0009 0.0427696 11.1412C0.0113038 10.9981 0.00417948 10.8473 0.00358578 10.7C0.00121101 9.90791 0.0018047 9.11642 0.00299209 8.32493C0.00536687 7.21696 0.729674 6.47772 1.8381 6.47415C3.87625 6.46762 5.91381 6.47237 7.95197 6.47237C8.47679 6.47237 9.00102 6.47237 9.52526 6.47237ZM12.1049 9.50475C12.1072 9.97917 12.4741 10.3515 12.9461 10.3568C13.4229 10.3621 13.8189 9.96967 13.8153 9.49346C13.8117 9.02854 13.4306 8.64616 12.9645 8.64081C12.4824 8.63547 12.1025 9.01726 12.1049 9.50475ZM16.3967 9.50534C16.399 9.01726 16.0197 8.63606 15.5376 8.64141C15.0721 8.64675 14.6898 9.02914 14.6856 9.49346C14.6815 9.96848 15.0781 10.3621 15.5548 10.3574C16.0262 10.3515 16.3943 9.97976 16.3967 9.50534ZM3.44939 9.48278C3.44939 9.21617 3.45651 8.94898 3.44761 8.68297C3.43811 8.39024 3.2695 8.21152 3.02312 8.21211C2.7797 8.21271 2.60872 8.39618 2.60515 8.68594C2.59862 9.22924 2.59862 9.77254 2.60515 10.3152C2.60872 10.6044 2.78208 10.7873 3.02608 10.7861C3.27306 10.7849 3.43811 10.6068 3.44761 10.3123C3.45592 10.0362 3.44939 9.75947 3.44939 9.48278ZM6.89875 9.51128C6.89935 9.51128 6.89994 9.51128 6.90053 9.51128C6.90053 9.25477 6.90053 8.99767 6.90053 8.74116C6.90053 8.72156 6.90053 8.70138 6.89935 8.68178C6.8851 8.3938 6.71946 8.21033 6.47545 8.21211C6.23797 8.21389 6.06224 8.38431 6.05749 8.65744C6.04799 9.22033 6.04739 9.78322 6.05808 10.3461C6.06342 10.6169 6.2445 10.7879 6.48079 10.7861C6.71471 10.7843 6.88747 10.608 6.89638 10.3402C6.90588 10.0647 6.89875 9.78797 6.89875 9.51128ZM5.17882 9.5279C5.17882 9.24171 5.18654 8.95492 5.17645 8.66872C5.16695 8.39796 4.99774 8.22042 4.76561 8.21152C4.52397 8.20261 4.33162 8.38846 4.32687 8.66991C4.31737 9.22271 4.31796 9.7761 4.32687 10.3295C4.33162 10.5997 4.50557 10.7778 4.7377 10.7867C4.97934 10.7956 5.16576 10.6103 5.17704 10.3283C5.18654 10.0617 5.17882 9.7945 5.17882 9.5279Z" fill="#393D48"/>
<path d="M9.51223 0.000529975C12.0449 0.000529975 14.5776 -6.37933e-05 17.1103 0.000529975C18.2775 0.00112374 18.9959 0.719584 18.9965 1.88575C18.9971 2.65764 18.9977 3.42954 18.9965 4.20085C18.9941 5.29516 18.287 6.01956 17.1863 6.04866C16.801 6.05875 16.4145 6.05044 16.0286 6.05044C11.3295 6.05044 6.63043 6.05103 1.93075 6.04984C0.919688 6.04984 0.218534 5.53267 0.0374576 4.64439C-0.00350729 4.4437 0.00242966 4.23173 0.00124227 4.0245C-0.00291359 3.28229 -0.00291359 2.54008 0.000648574 1.79846C0.00599182 0.749272 0.747516 0.00290505 1.79598 0.00171751C4.36787 -0.00125133 6.94034 0.000529975 9.51223 0.000529975ZM12.9414 3.87428C13.427 3.87903 13.8153 3.49723 13.8124 3.01866C13.8094 2.55908 13.4217 2.16482 12.964 2.15532C12.4932 2.14582 12.1013 2.54186 12.1019 3.02578C12.1031 3.50614 12.4623 3.86953 12.9414 3.87428ZM16.3943 3.01866C16.3926 2.5472 16.0209 2.16422 15.5554 2.15532C15.0912 2.14641 14.6821 2.55492 14.6833 3.02459C14.6845 3.50317 15.0757 3.88081 15.562 3.87368C16.0399 3.86656 16.3961 3.5008 16.3943 3.01866ZM6.897 3.02875C6.89641 3.02875 6.89641 3.02875 6.89582 3.02875C6.89582 2.74196 6.90353 2.45517 6.89344 2.16897C6.88394 1.90653 6.6993 1.71652 6.46895 1.73493C6.2196 1.75512 6.06168 1.8994 6.05693 2.15532C6.04743 2.7283 6.04565 3.30188 6.05633 3.87487C6.06108 4.14325 6.2475 4.31485 6.48379 4.3101C6.71711 4.30535 6.88632 4.12841 6.89463 3.85943C6.90353 3.58274 6.897 3.30604 6.897 3.02875ZM3.44645 3.02459C3.44704 3.02459 3.44704 3.02459 3.44764 3.02459C3.44764 2.76749 3.44764 2.51098 3.44764 2.25388C3.44764 2.23429 3.44764 2.2141 3.44645 2.1945C3.42686 1.91187 3.24875 1.72305 3.00949 1.73196C2.77854 1.74027 2.60697 1.92018 2.6034 2.18975C2.59628 2.74315 2.59628 3.29654 2.6034 3.84993C2.60697 4.12306 2.77261 4.30001 3.00474 4.3101C3.25113 4.3202 3.43339 4.14088 3.44408 3.85468C3.45476 3.57858 3.44645 3.30129 3.44645 3.02459ZM4.32037 3.02994C4.32037 3.26744 4.32037 3.50436 4.32037 3.74187C4.32037 3.76146 4.31978 3.78165 4.32096 3.80124C4.33284 4.11713 4.48898 4.30535 4.74189 4.3101C4.99659 4.31485 5.17173 4.12603 5.17529 3.81609C5.18241 3.28229 5.18241 2.7479 5.1747 2.2141C5.17054 1.92612 4.9954 1.73671 4.75673 1.73196C4.50857 1.72662 4.33046 1.92375 4.32215 2.22894C4.31562 2.49555 4.32096 2.76274 4.32037 3.02994Z" fill="#393D48"/>
<path d="M9.46868 18.9987C6.94608 18.9987 4.42347 18.9993 1.90027 18.9987C0.714066 18.9987 0.00103897 18.2844 0.000445271 17.0975C-0.000148424 16.3457 -0.000148424 15.5934 0.000445271 14.8417C0.00163266 13.6774 0.717035 12.9547 1.88602 12.95C3.38985 12.9446 4.89367 12.9488 6.3975 12.9488C9.95907 12.9488 13.5206 12.9476 17.0822 12.9494C18.0808 12.95 18.7932 13.4844 18.963 14.3703C19.0052 14.5912 18.9945 14.8233 18.9957 15.0501C18.9993 15.7722 19.0004 16.4948 18.9963 17.2168C18.9904 18.2476 18.2459 18.9963 17.2152 18.9975C14.6326 19.0011 12.0507 18.9987 9.46868 18.9987ZM12.1023 15.9467C12.091 16.4366 12.4579 16.8314 12.9365 16.8439C13.3883 16.8558 13.7926 16.4704 13.8116 16.0085C13.8317 15.5311 13.4506 15.1321 12.9685 15.125C12.4882 15.1178 12.113 15.4735 12.1023 15.9467ZM15.5297 15.125C15.0595 15.1309 14.6831 15.5091 14.6825 15.9764C14.6825 16.4467 15.0933 16.854 15.5564 16.8439C16.0343 16.8332 16.4036 16.4384 16.3935 15.9491C16.384 15.4753 16.0106 15.119 15.5297 15.125ZM6.89621 15.9948C6.89621 15.708 6.90333 15.4213 6.89442 15.1351C6.88611 14.8673 6.71335 14.6915 6.47884 14.6897C6.24077 14.6879 6.06088 14.8578 6.05553 15.1291C6.04485 15.692 6.04544 16.2555 6.05494 16.819C6.05969 17.0862 6.24195 17.2655 6.4729 17.2667C6.71454 17.2685 6.8873 17.082 6.89561 16.7952C6.90274 16.5286 6.89739 16.262 6.89621 15.9948ZM2.60083 15.9657C2.60083 16.2424 2.59489 16.5191 2.60261 16.7958C2.61033 17.0832 2.78309 17.2691 3.02472 17.2673C3.25567 17.2655 3.43794 17.0868 3.44269 16.819C3.45218 16.2561 3.45278 15.6926 3.44209 15.1291C3.43675 14.8578 3.25567 14.6874 3.01879 14.6891C2.78487 14.6909 2.61211 14.8673 2.6032 15.1351C2.5943 15.4118 2.60142 15.689 2.60083 15.9657ZM5.17568 15.977C5.17568 15.7003 5.1834 15.423 5.17331 15.1463C5.16321 14.8726 4.99698 14.698 4.76306 14.6891C4.51846 14.6802 4.32907 14.8613 4.32373 15.1463C4.31364 15.6997 4.31423 16.2537 4.32313 16.8071C4.32729 17.0755 4.5048 17.2578 4.73338 17.2667C4.97204 17.2762 5.16262 17.0868 5.17271 16.8065C5.18399 16.531 5.17627 16.2537 5.17568 15.977Z" fill="#393D48"/>
</g>
<defs>
<clipPath id="clip0_548_9693">
<rect width="19" height="19" fill="white"/>
</clipPath>
</defs>
</svg>
