<svg width="17" height="21" viewBox="0 0 17 21" fill="none" xmlns="http://www.w3.org/2000/svg">
<g clip-path="url(#clip0_548_9697)">
<path d="M14.3868 2.62391C15.0176 2.62391 15.6138 2.62194 16.2099 2.62456C16.7688 2.62653 17.0009 2.86014 17.0009 3.42645C17.0016 9.01473 17.0016 14.6023 17.0009 20.1906C17.0009 20.7747 16.7728 20.9997 16.1864 20.9997C11.6877 21.0004 7.18828 21.001 2.68955 20.9991C1.14225 20.9984 0.00481981 19.8632 0.00416611 18.3086C0.000897638 12.9067 0.00155133 7.50413 0.00416611 2.10222C0.00416611 0.834425 0.833052 0.00169595 2.08749 0.00103974C5.92207 -0.000928891 9.75665 0.000383527 13.5912 0.00103974C14.1521 0.00103974 14.3842 0.233994 14.3861 0.797021C14.3881 1.38695 14.3868 1.97689 14.3868 2.62391ZM8.49175 17.0599C9.7756 17.0599 11.0601 17.0631 12.344 17.0585C12.8179 17.0566 13.0683 16.802 13.0748 16.3275C13.0807 15.9016 13.082 15.4751 13.0742 15.0492C13.0408 13.2624 11.6203 11.841 9.83509 11.8167C8.94279 11.8043 8.0505 11.8049 7.15821 11.8174C5.707 11.8371 4.42641 12.7807 4.08061 14.1962C3.92045 14.8511 3.95641 15.5578 3.93287 16.2422C3.91261 16.8262 4.15905 17.0599 4.73757 17.0605C5.98875 17.0612 7.23992 17.0605 8.49175 17.0599ZM11.1137 7.86767C11.1104 6.43714 9.93576 5.25662 8.51136 5.25268C7.07192 5.24874 5.88742 6.43714 5.89004 7.88145C5.89331 9.31199 7.068 10.4925 8.4924 10.4964C9.93184 10.501 11.117 9.31199 11.1137 7.86767ZM13.065 1.32658C12.9571 1.32133 12.8826 1.31477 12.8074 1.31477C9.23827 1.31411 5.66844 1.31411 2.09926 1.31477C2.02343 1.31477 1.94564 1.31215 1.87112 1.32461C1.55539 1.37711 1.32005 1.64944 1.31483 1.95982C1.3096 2.28268 1.55342 2.56616 1.88419 2.61603C1.95871 2.62719 2.0365 2.62391 2.11233 2.62391C5.65994 2.62456 9.20754 2.62391 12.7551 2.62391C12.8578 2.62391 12.9604 2.62391 13.0643 2.62391C13.065 2.16522 13.065 1.76296 13.065 1.32658Z" fill="#393D48"/>
</g>
<defs>
<clipPath id="clip0_548_9697">
<rect width="17" height="21" fill="white"/>
</clipPath>
</defs>
</svg>
