<svg width="27" height="25" viewBox="0 0 27 25" fill="none" xmlns="http://www.w3.org/2000/svg">
<path fill-rule="evenodd" clip-rule="evenodd" d="M19.8802 0.875C21.6123 0.875 23.2786 1.55958 24.5044 2.78796C25.7314 4.01375 26.4173 5.66708 26.4173 7.39792V17.6021C26.4173 21.2058 23.4852 24.125 19.8802 24.125H7.11982C3.51478 24.125 0.583984 21.2058 0.583984 17.6021V7.39792C0.583984 3.79417 3.50186 0.875 7.11982 0.875H19.8802ZM21.9352 9.3226L22.0385 9.21926C22.3473 8.84468 22.3473 8.30218 22.0243 7.9276C21.8448 7.73514 21.5981 7.6176 21.341 7.59176C21.0698 7.57755 20.8115 7.66926 20.6164 7.8501L14.7923 12.5001C14.0431 13.1214 12.9698 13.1214 12.209 12.5001L6.39646 7.8501C5.99475 7.55301 5.43934 7.59176 5.1048 7.94051C4.75605 8.28926 4.7173 8.84468 5.01309 9.23218L5.1823 9.4001L11.0594 13.9855C11.7827 14.5538 12.6598 14.8638 13.5781 14.8638C14.4939 14.8638 15.3865 14.5538 16.1085 13.9855L21.9352 9.3226Z" fill="white"/>
</svg>
