<svg width="89" height="89" viewBox="0 0 89 89" fill="none" xmlns="http://www.w3.org/2000/svg">
<g clip-path="url(#clip0_548_7866)">
<path d="M70.7642 78.1628C67.023 81.3683 63.4183 84.4556 59.8105 87.5398C57.5943 89.4352 55.6722 89.4504 53.4681 87.5671C49.827 84.4556 46.1919 81.3319 42.4841 78.1506C38.7399 81.3531 35.0532 84.4889 31.3848 87.652C30.2964 88.5891 29.1201 89.138 27.6528 88.8772C25.9065 88.5679 24.7089 87.4731 24.4391 85.7202C24.2724 84.6315 24.2633 83.5094 24.2633 82.3994C24.2754 60.1183 24.3876 37.8402 24.2633 15.5591C24.2299 9.28451 20.8616 4.72942 15.3439 1.78469C14.8648 1.52994 14.3646 1.31462 13.8735 1.08111C13.8674 0.908245 13.8644 0.73235 13.8613 0.559487C14.9982 0.374494 16.1351 0.0318006 17.272 0.028768C33.9406 -0.00459153 50.6061 -0.0106569 67.2747 0.0196699C70.1973 0.0257353 73.1866 -0.131964 76.0273 0.410886C83.9311 1.92419 88.9881 8.51118 88.9941 16.9147C89.0093 38.6378 88.9911 60.3639 88.985 82.087C88.985 83.1454 89.0547 84.219 88.9244 85.2653C88.4939 88.7044 84.9467 90.16 82.2667 87.9522C78.9166 85.1895 75.6575 82.3175 72.3559 79.4941C71.8587 79.0665 71.3524 78.654 70.7642 78.1628ZM56.5938 56.6307C56.5938 56.6277 56.5938 56.6277 56.5938 56.6246C60.5351 56.6246 64.4733 56.6368 68.4146 56.6216C70.9461 56.6125 72.6894 55.0325 72.75 52.7368C72.8137 50.3561 71.1371 48.5759 68.548 48.5577C60.617 48.5031 52.6859 48.5062 44.7579 48.5547C42.1324 48.5699 40.4498 50.2985 40.4983 52.6761C40.5468 55.0386 42.2961 56.6186 44.9246 56.6277C48.8174 56.6398 52.7041 56.6307 56.5938 56.6307ZM56.6302 32.3693C52.7405 32.3693 48.8507 32.3602 44.961 32.3723C42.3143 32.3814 40.565 33.9311 40.5013 36.2905C40.4346 38.7227 42.1597 40.4392 44.8791 40.4514C52.7071 40.4878 60.5381 40.4847 68.3691 40.4514C71.0098 40.4423 72.747 38.7986 72.7621 36.4513C72.7773 34.0403 70.9764 32.3784 68.2994 32.3693C64.4066 32.3602 60.5199 32.3693 56.6302 32.3693ZM56.4695 24.2659C60.3077 24.2659 64.1429 24.2841 67.9811 24.2508C68.7754 24.2447 69.6182 24.178 70.3519 23.902C72.0648 23.2591 72.9835 21.4698 72.7106 19.6047C72.4408 17.7609 70.9431 16.3112 68.9724 16.2597C65.6436 16.1717 62.3087 16.2172 58.9768 16.2142C54.2321 16.2112 49.4844 16.1808 44.7397 16.2293C41.9111 16.2597 40.1345 18.328 40.5589 20.9512C40.8803 22.9467 42.481 24.2356 44.8094 24.2538C48.6961 24.2872 52.5828 24.2629 56.4695 24.2659Z" fill="#8E8D8D" fill-opacity="0.18"/>
<path d="M16.2224 31.2352C16.2224 36.4908 16.1921 41.7464 16.2436 47.0021C16.2558 48.1666 15.9465 48.5912 14.7187 48.5639C11.3352 48.4881 7.94878 48.573 4.56535 48.5336C1.59727 48.5002 0.0450128 46.999 0.0359175 44.0482C-0.000463439 34.4437 -0.0247174 24.8423 0.041981 15.2439C0.0722985 10.7009 3.78619 7.18906 8.23983 7.26488C12.7723 7.34069 16.2649 10.992 16.2558 15.6199C16.2467 20.824 16.2527 26.0281 16.2527 31.2321C16.2436 31.2352 16.2315 31.2352 16.2224 31.2352Z" fill="#8E8D8D" fill-opacity="0.18"/>
</g>
<defs>
<clipPath id="clip0_548_7866">
<rect width="89" height="89" fill="white"/>
</clipPath>
</defs>
</svg>
