<svg width="20" height="24" viewBox="0 0 20 24" fill="none" xmlns="http://www.w3.org/2000/svg">
<g clip-path="url(#clip0_548_3045)">
<path d="M1.31945 20.303C1.14199 20.2927 0.995219 20.3011 0.856123 20.2739C0.375525 20.1802 0.032103 19.8044 0.0225102 19.3217C0.00524319 18.5025 0.0129174 17.6825 0.0119581 16.8624C0.0109989 15.6833 0.042655 14.5033 0.00236535 13.3252C-0.0302501 12.3702 0.51462 11.9428 1.31945 11.9896C1.31945 11.8978 1.31945 11.8078 1.31945 11.7178C1.31945 8.66429 1.31658 5.61169 1.32137 2.55815C1.32329 1.35192 2.12333 0.365938 3.32243 0.0763296C3.51428 0.0304046 3.71573 0.00322458 3.91334 0.00322458C7.14228 -0.00146164 10.3712 -0.00146164 13.6001 0.00603631C13.7114 0.00603631 13.8496 0.0641454 13.9282 0.140062C15.9034 2.05298 17.8737 3.97058 19.8383 5.89474C19.9218 5.97628 19.987 6.11968 19.987 6.23402C19.9947 11.2708 19.9813 16.3075 20.0004 21.3433C20.0062 22.8673 18.7726 24.0079 17.2531 23.9995C12.849 23.976 8.44594 23.991 4.04189 23.991C2.62503 23.991 1.59285 23.1522 1.3444 21.7913C1.31658 21.6395 1.32233 21.4802 1.32041 21.3246C1.31754 20.9919 1.31945 20.6573 1.31945 20.303ZM2.90994 20.2917C2.90994 20.6338 2.90994 20.9375 2.90994 21.2412C2.9109 22.0463 3.30516 22.4343 4.12918 22.4343C8.48527 22.4343 12.8413 22.4352 17.1974 22.4343C18.0099 22.4343 18.3994 22.0509 18.3975 21.2543C18.3841 16.4753 18.3697 11.6963 18.3553 6.91727C18.3553 6.83479 18.3476 6.75325 18.3428 6.65859C18.221 6.65859 18.126 6.65859 18.031 6.65859C16.9605 6.65672 15.889 6.67265 14.8184 6.64828C14.0155 6.62954 13.2452 5.88724 13.2222 5.10652C13.1905 4.02213 13.2001 2.9368 13.1924 1.85147C13.1915 1.76056 13.1924 1.66871 13.1924 1.56561C13.0908 1.55999 13.0207 1.55249 12.9507 1.55249C9.99325 1.5553 7.0358 1.55717 4.07834 1.56186C3.31475 1.5628 2.90994 1.96394 2.90994 2.70811C2.90898 5.72228 2.90898 8.73646 2.90994 11.7506C2.90994 11.8266 2.91665 11.9015 2.92145 11.9971C3.03369 11.9971 3.1277 11.9971 3.2217 11.9971C7.24204 11.9971 11.2624 11.9971 15.2827 11.9971C16.1077 11.9971 16.5202 12.3992 16.5202 13.2052C16.5211 15.165 16.5077 17.1257 16.5269 19.0855C16.5336 19.8269 16.0405 20.3049 15.2846 20.3011C11.2643 20.2814 7.24396 20.2917 3.22362 20.2917C3.12961 20.2917 3.0356 20.2917 2.90994 20.2917ZM6.61371 14.1528C6.61371 15.5868 6.61371 16.9955 6.61371 18.4191C7.22286 18.4191 7.81665 18.465 8.39989 18.4098C9.75055 18.2823 10.4489 17.5278 10.4988 16.2185C10.541 15.0994 9.92227 14.3496 8.79319 14.1415C8.06798 14.0075 7.3466 14.0675 6.61371 14.1528ZM3.76561 18.4098C3.76561 18.1351 3.76561 17.8868 3.76561 17.6375C3.76561 17.39 3.76561 17.1426 3.76561 16.9102C4.12343 16.8764 4.45917 16.8727 4.78341 16.8089C5.50479 16.6674 5.91344 16.1716 5.9403 15.4593C5.96332 14.8267 5.60359 14.3299 4.958 14.1631C4.2347 13.9757 3.50565 14.0656 2.78427 14.1547C2.78427 15.5896 2.78427 16.9973 2.78427 18.4079C3.11331 18.4098 3.42315 18.4098 3.76561 18.4098ZM11.1789 14.1116C11.1789 15.5577 11.1789 16.9805 11.1789 18.4041C11.5137 18.4041 11.8293 18.4041 12.1727 18.4041C12.1727 17.8258 12.1727 17.2607 12.1727 16.6721C12.7157 16.6721 13.2308 16.6721 13.744 16.6721C13.744 16.4003 13.744 16.1538 13.744 15.882C13.2155 15.882 12.7013 15.882 12.1833 15.882C12.1833 15.5418 12.1833 15.2269 12.1833 14.8867C12.755 14.8867 13.3104 14.8867 13.8649 14.8867C13.8649 14.6139 13.8649 14.3684 13.8649 14.1106C12.9661 14.1116 12.0816 14.1116 11.1789 14.1116Z" fill="white"/>
<path d="M7.61035 17.6521C7.61035 16.728 7.61035 15.802 7.61035 14.8788C8.1581 14.696 8.85358 14.8825 9.17973 15.2949C9.52219 15.727 9.52123 16.668 9.17877 17.1572C8.86892 17.5958 8.19167 17.8133 7.61035 17.6521Z" fill="white"/>
<path d="M3.76511 16.1167C3.76511 15.7174 3.75936 15.3528 3.77087 14.9882C3.77279 14.9282 3.84953 14.827 3.89941 14.8214C4.07112 14.8036 4.25147 14.798 4.42126 14.827C4.76564 14.8861 4.96133 15.1241 4.96037 15.44C4.95941 15.783 4.71959 16.0632 4.35603 16.112C4.17089 16.1373 3.97999 16.1167 3.76511 16.1167Z" fill="white"/>
</g>
<defs>
<clipPath id="clip0_548_3045">
<rect width="20" height="24" fill="white"/>
</clipPath>
</defs>
</svg>
