<svg width="17" height="18" viewBox="0 0 17 18" fill="none" xmlns="http://www.w3.org/2000/svg">
<g clip-path="url(#clip0_548_9699)">
<path d="M14.3624 2.94934C14.3704 2.81264 14.3801 2.72375 14.3807 2.6343C14.3824 1.99688 14.3784 1.35891 14.383 0.721497C14.3859 0.289992 14.6374 0.0103858 15.0171 0.000259173C15.4037 -0.00986741 15.6907 0.277615 15.693 0.712495C15.6998 1.94062 15.6993 3.16875 15.6935 4.39745C15.6913 4.8177 15.5506 5.00279 15.1338 5.14175C13.8815 5.55919 12.6276 5.97157 11.3719 6.38001C10.9825 6.50659 10.6263 6.344 10.5045 6.00532C10.3742 5.64302 10.5428 5.3049 10.9517 5.16594C11.8414 4.86327 12.7362 4.5741 13.6288 4.2793C13.6637 4.26749 13.698 4.25286 13.7718 4.22473C13.7026 4.14259 13.6517 4.07058 13.5893 4.01039C9.69829 0.233733 3.26333 1.8343 1.64629 6.92572C1.44445 7.56088 1.39585 8.24667 1.31637 8.9139C1.26033 9.38366 1.04477 9.6447 0.623927 9.62951C0.235107 9.61489 -0.00561828 9.3229 9.96542e-05 8.87283C0.0492739 4.87508 3.00259 1.45511 7.02573 0.778881C9.70744 0.328248 12.0781 1.02304 14.1366 2.76538C14.1983 2.8177 14.2618 2.86721 14.3624 2.94934Z" fill="#393D48"/>
<path d="M2.63795 15.0555C2.62994 15.1866 2.62022 15.2755 2.62022 15.3644C2.61908 16.0018 2.62251 16.6398 2.61793 17.2772C2.61507 17.7093 2.3652 17.9889 1.98553 18.0001C1.59843 18.0114 1.31024 17.7244 1.30795 17.289C1.30052 16.0609 1.30166 14.8327 1.30738 13.604C1.3091 13.1827 1.44976 12.997 1.86545 12.8586C3.11768 12.4412 4.37163 12.0288 5.62728 11.6204C6.01668 11.4938 6.37348 11.6547 6.49641 11.9928C6.62792 12.3551 6.45982 12.6943 6.05098 12.8333C5.12582 13.1472 4.19551 13.4476 3.22346 13.7683C3.2978 13.8572 3.34983 13.9275 3.41044 13.9894C6.01668 16.6218 10.4509 16.7675 13.231 14.314C14.812 12.9188 15.6177 11.1709 15.692 9.08928C15.7074 8.6499 15.9236 8.3928 16.2895 8.37254C16.7298 8.34779 17.0123 8.64146 16.9991 9.12697C16.9642 10.4091 16.6989 11.6434 16.0785 12.7759C14.4369 15.7706 11.865 17.3216 8.41364 17.3498C6.29628 17.3672 4.43224 16.6066 2.84379 15.217C2.79062 15.1692 2.73115 15.1281 2.63795 15.0555Z" fill="#393D48"/>
</g>
<defs>
<clipPath id="clip0_548_9699">
<rect width="17" height="18" fill="white"/>
</clipPath>
</defs>
</svg>
