<svg width="18" height="25" viewBox="0 0 18 25" fill="none" xmlns="http://www.w3.org/2000/svg">
<path d="M5.63037 0.361189C-2.65379 0.00912393 -1.48788 23.6864 7.10312 24.1485L10.725 23.4001C17.9372 24.6607 18.9106 7.08637 17.3786 2.74827C16.6837 -0.636072 12.3745 -0.146074 10.2119 0.361189H5.63037Z" fill="url(#paint0_radial_665_6165)"/>
<path d="M11.9375 3.01478L9.13444 2.05664L6.0479 3.01478L2.25586 7.47181V14.6936L5.20382 20.4282L5.21642 20.4044L8.99586 22.6972L12.7816 20.4329L15.7296 14.6984V7.47181L11.9375 3.01478Z" fill="url(#paint1_linear_665_6165)"/>
<path d="M11.0915 4.40234H6.9152L3.96094 8.10143V13.3259L6.9152 17.025H11.0915L14.0457 13.3259V8.10143L11.0915 4.40234Z" fill="url(#paint2_linear_665_6165)"/>
<path d="M3.93771 8.11141V13.3168L2.25586 14.6945V7.47266L3.93771 8.11141Z" fill="url(#paint3_linear_665_6165)"/>
<path d="M6.88566 4.3913L3.93771 8.10946L2.25586 7.4707L6.0479 3.01367L6.88566 4.3913Z" fill="url(#paint4_linear_665_6165)"/>
<path d="M3.93771 13.3164L2.25586 14.694L5.20382 20.4333L6.88566 17.0345L3.93771 13.3164Z" fill="url(#paint5_linear_665_6165)"/>
<path d="M14.0469 8.11141V13.3168L15.7287 14.6945V7.47266L14.0469 8.11141Z" fill="url(#paint6_linear_665_6165)"/>
<path d="M11.0977 4.3913L14.0456 8.10946L15.7275 7.4707L11.9354 3.01367L11.0977 4.3913Z" fill="url(#paint7_linear_665_6165)"/>
<path d="M14.0456 13.3164L15.7275 14.694L12.7795 20.4333L11.0977 17.0345L14.0456 13.3164Z" fill="url(#paint8_linear_665_6165)"/>
<path d="M11.0986 17.0332L6.89083 17.0666L5.20898 20.4033L8.99472 22.6963L12.7805 20.432L11.0986 17.0332Z" fill="url(#paint9_linear_665_6165)"/>
<path d="M6.04688 3.01478L6.88464 4.39241H11.0987L11.9365 3.01478L9.13341 2.05664L6.04688 3.01478Z" fill="url(#paint10_linear_665_6165)"/>
<defs>
<radialGradient id="paint0_radial_665_6165" cx="0" cy="0" r="1" gradientUnits="userSpaceOnUse" gradientTransform="translate(8.80224 12.2241) scale(8.38006 10.0336)">
<stop offset="0.55" stop-color="#FF8CB6" stop-opacity="0.7"/>
<stop offset="1" stop-color="#FF8CB6" stop-opacity="0"/>
</radialGradient>
<linearGradient id="paint1_linear_665_6165" x1="15.7292" y1="12.3769" x2="2.25586" y2="12.3769" gradientUnits="userSpaceOnUse">
<stop stop-color="#FFADB0"/>
<stop offset="1" stop-color="#EF67A5"/>
</linearGradient>
<linearGradient id="paint2_linear_665_6165" x1="9.00162" y1="17.0237" x2="9.00162" y2="4.40239" gradientUnits="userSpaceOnUse">
<stop stop-color="#FFADB0"/>
<stop offset="1" stop-color="#EF67A5"/>
</linearGradient>
<linearGradient id="paint3_linear_665_6165" x1="3.94001" y1="11.0852" x2="2.25586" y2="11.0852" gradientUnits="userSpaceOnUse">
<stop stop-color="#FFADB0"/>
<stop offset="1" stop-color="#EF67A5"/>
</linearGradient>
<linearGradient id="paint4_linear_665_6165" x1="6.88731" y1="5.56042" x2="2.25586" y2="5.56042" gradientUnits="userSpaceOnUse">
<stop stop-color="#FFADB0"/>
<stop offset="1" stop-color="#EF67A5"/>
</linearGradient>
<linearGradient id="paint5_linear_665_6165" x1="6.88731" y1="16.8731" x2="2.25586" y2="16.8731" gradientUnits="userSpaceOnUse">
<stop stop-color="#FFADB0"/>
<stop offset="1" stop-color="#EF67A5"/>
</linearGradient>
<linearGradient id="paint6_linear_665_6165" x1="14.0442" y1="11.0852" x2="15.7283" y2="11.0852" gradientUnits="userSpaceOnUse">
<stop stop-color="#FFADB0"/>
<stop offset="1" stop-color="#EF67A5"/>
</linearGradient>
<linearGradient id="paint7_linear_665_6165" x1="11.0956" y1="5.56042" x2="15.7271" y2="5.56042" gradientUnits="userSpaceOnUse">
<stop stop-color="#FFADB0"/>
<stop offset="1" stop-color="#EF67A5"/>
</linearGradient>
<linearGradient id="paint8_linear_665_6165" x1="11.0956" y1="16.8731" x2="15.7271" y2="16.8731" gradientUnits="userSpaceOnUse">
<stop stop-color="#FFADB0"/>
<stop offset="1" stop-color="#EF67A5"/>
</linearGradient>
<linearGradient id="paint9_linear_665_6165" x1="8.99588" y1="22.6963" x2="8.99588" y2="17.0312" gradientUnits="userSpaceOnUse">
<stop stop-color="#FFADB0"/>
<stop offset="1" stop-color="#EF67A5"/>
</linearGradient>
<linearGradient id="paint10_linear_665_6165" x1="11.9388" y1="3.22494" x2="6.04421" y2="3.22494" gradientUnits="userSpaceOnUse">
<stop stop-color="#FFADB0"/>
<stop offset="1" stop-color="#EF67A5"/>
</linearGradient>
</defs>
</svg>
