<svg width="22" height="22" viewBox="0 0 22 22" fill="none" xmlns="http://www.w3.org/2000/svg">
<path fill-rule="evenodd" clip-rule="evenodd" d="M10.5785 0.166016C4.82785 0.166016 0.166016 4.72489 0.166016 10.3485C0.166016 15.9722 4.82785 20.5311 10.5785 20.5311C13.038 20.5311 15.2984 19.6972 17.08 18.3027L20.4644 21.6037L20.5545 21.6796C20.8687 21.9069 21.3142 21.8811 21.5985 21.6023C21.9113 21.2957 21.9106 20.7991 21.597 20.4933L18.2524 17.231C19.953 15.4187 20.991 13.0022 20.991 10.3485C20.991 4.72489 16.3292 0.166016 10.5785 0.166016ZM10.5785 1.73436C15.4434 1.73436 19.3872 5.59105 19.3872 10.3485C19.3872 15.106 15.4434 18.9627 10.5785 18.9627C5.71361 18.9627 1.76982 15.106 1.76982 10.3485C1.76982 5.59105 5.71361 1.73436 10.5785 1.73436Z" fill="white"/>
</svg>
