<svg width="25" height="25" viewBox="0 0 25 25" fill="none" xmlns="http://www.w3.org/2000/svg">
<g clip-path="url(#clip0_665_7017)">
<path d="M12.5015 6.25C18.5422 6.25 23.439 4.85 23.439 3.125C23.439 1.4 18.5422 0 12.5015 0C6.45947 0 1.5625 1.4 1.5625 3.125C1.5625 4.85 6.45947 6.25 12.5015 6.25Z" fill="white"/>
<path d="M1.5625 5.62891V9.37564C1.5625 11.1006 6.45952 12.5006 12.5 12.5006C18.5405 12.5006 23.4375 11.1006 23.4375 9.37564V5.62891C20.3157 7.72891 13.4845 7.81313 12.5015 7.81313C11.5188 7.81313 4.6875 7.72861 1.5625 5.62891Z" fill="white"/>
<path d="M1.5625 11.8789V15.6256C1.5625 17.3506 6.45952 18.7506 12.5 18.7506C18.5405 18.7506 23.4375 17.3506 23.4375 15.6256V11.8789C20.3157 13.9774 13.4845 14.0631 12.5015 14.0631C11.5188 14.0631 4.6875 13.9771 1.5625 11.8789Z" fill="white"/>
<path d="M1.5625 18.1289V21.8756C1.5625 23.6006 6.45952 25.0006 12.5 25.0006C18.5405 25.0006 23.4375 23.6006 23.4375 21.8756V18.1289C20.3157 20.2274 13.4845 20.3131 12.5015 20.3131C11.5188 20.3131 4.6875 20.2271 1.5625 18.1289Z" fill="white"/>
</g>
<defs>
<clipPath id="clip0_665_7017">
<rect width="25" height="25" fill="white"/>
</clipPath>
</defs>
</svg>
