<svg width="18" height="20" viewBox="0 0 18 20" fill="none" xmlns="http://www.w3.org/2000/svg">
<path fill-rule="evenodd" clip-rule="evenodd" d="M16.7015 11.449C17.0294 11.6232 17.2823 11.8982 17.4603 12.1732C17.8069 12.7415 17.7788 13.4382 17.4416 14.0523L16.7858 15.1523C16.4392 15.739 15.7928 16.1057 15.1277 16.1057C14.7998 16.1057 14.4345 16.014 14.1347 15.8307C13.8911 15.6748 13.6101 15.6198 13.3103 15.6198C12.3829 15.6198 11.6053 16.3807 11.5772 17.2882C11.5772 18.3423 10.7154 19.1673 9.63807 19.1673H8.36403C7.27735 19.1673 6.4155 18.3423 6.4155 17.2882C6.39676 16.3807 5.61922 15.6198 4.6918 15.6198C4.38265 15.6198 4.10162 15.6748 3.86742 15.8307C3.56764 16.014 3.19293 16.1057 2.87442 16.1057C2.19992 16.1057 1.55354 15.739 1.20692 15.1523L0.560534 14.0523C0.21392 13.4565 0.195184 12.7415 0.541798 12.1732C0.691685 11.8982 0.972723 11.6232 1.29123 11.449C1.55354 11.3207 1.72216 11.1098 1.88141 10.8623C2.34981 10.074 2.06877 9.03815 1.2725 8.57065C0.345071 8.04815 0.0452969 6.88398 0.57927 5.97648L1.20692 4.89482C1.75026 3.98732 2.91189 3.66648 3.84868 4.19815C4.66369 4.63815 5.72227 4.34482 6.20004 3.56565C6.34992 3.30898 6.43423 3.03398 6.4155 2.75898C6.39676 2.40148 6.49981 2.06232 6.6778 1.78732C7.02441 1.21898 7.65207 0.852318 8.33593 0.833984H9.65681C10.35 0.833984 10.9777 1.21898 11.3243 1.78732C11.4929 2.06232 11.6053 2.40148 11.5772 2.75898C11.5585 3.03398 11.6428 3.30898 11.7927 3.56565C12.2705 4.34482 13.329 4.63815 14.1534 4.19815C15.0808 3.66648 16.2518 3.98732 16.7858 4.89482L17.4135 5.97648C17.9568 6.88398 17.657 8.04815 16.7202 8.57065C15.924 9.03815 15.6429 10.074 16.1207 10.8623C16.2706 11.1098 16.4392 11.3207 16.7015 11.449ZM6.34995 10.0098C6.34995 11.449 7.53968 12.5948 9.01045 12.5948C10.4812 12.5948 11.6428 11.449 11.6428 10.0098C11.6428 8.57068 10.4812 7.41568 9.01045 7.41568C7.53968 7.41568 6.34995 8.57068 6.34995 10.0098Z" fill="#393D48"/>
</svg>
