<svg width="17" height="22" viewBox="0 0 17 22" fill="none" xmlns="http://www.w3.org/2000/svg">
<g clip-path="url(#clip0_548_5038)">
<path d="M0.0110141 7.61234C0.0110141 6.488 0.00822961 5.36366 0.0124063 4.23863C0.0144947 3.70091 0.256745 3.46819 0.798328 3.45511C3.47144 3.39108 5.76098 2.43198 7.66418 0.572998C7.76303 0.475917 7.85979 0.376772 7.96003 0.281757C8.34846 -0.0865966 8.66729 -0.0962358 9.04528 0.282446C9.79013 1.02948 10.5914 1.70078 11.5228 2.21441C12.9477 3 14.4764 3.4076 16.1047 3.45304C16.7896 3.47232 16.9957 3.66923 16.9964 4.3426C16.9971 6.39643 17.0068 8.45026 16.9943 10.5041C16.963 15.6858 13.8151 20.1481 8.91859 21.9348C8.67355 22.0243 8.33315 22.0256 8.0909 21.932C3.8543 20.3023 1.22505 17.279 0.264402 12.8925C0.0409473 11.8735 0.0687922 10.7974 0.0172792 9.74604C-0.0175269 9.03618 0.0110141 8.32357 0.0110141 7.61234ZM14.3637 11.0095C14.3727 7.80512 11.7567 5.19016 8.53294 5.18121C5.29249 5.17226 2.65837 7.75211 2.64235 10.9502C2.62565 14.1663 5.25351 16.7957 8.49047 16.8026C11.7149 16.8109 14.3553 14.2062 14.3637 11.0095Z" fill="white"/>
<path d="M8.508 6.47656C11.0273 6.47725 13.069 8.48701 13.0801 10.9753C13.0913 13.4649 11.0259 15.5084 8.49895 15.5078C5.98943 15.5071 3.93934 13.4856 3.92681 11.0015C3.91428 8.50836 5.97341 6.47519 8.508 6.47656ZM7.62253 12.2635C7.17423 11.8043 6.78231 11.3829 6.36742 10.9849C6.06669 10.6958 5.70193 10.704 5.4367 10.967C5.17844 11.2232 5.17496 11.6018 5.45828 11.8903C6.01518 12.457 6.58043 13.016 7.15334 13.5668C7.45128 13.8533 7.79656 13.8719 8.08266 13.593C9.25424 12.4515 10.4168 11.301 11.5716 10.1429C11.8382 9.87574 11.8167 9.49018 11.5695 9.24575C11.3134 8.99238 10.9611 8.98343 10.6639 9.24025C10.4808 9.39792 10.3151 9.57555 10.1439 9.7463C9.32107 10.567 8.49895 11.3884 7.62253 12.2635Z" fill="white"/>
</g>
<defs>
<clipPath id="clip0_548_5038">
<rect width="17" height="22" fill="white"/>
</clipPath>
</defs>
</svg>
