<svg width="21" height="21" viewBox="0 0 21 21" fill="none" xmlns="http://www.w3.org/2000/svg">
<path fill-rule="evenodd" clip-rule="evenodd" d="M19.2518 12.1465C19.6244 12.3444 19.9118 12.6569 20.1141 12.9694C20.508 13.6152 20.476 14.4069 20.0928 15.1048L19.3476 16.3548C18.9537 17.0215 18.2192 17.4382 17.4634 17.4382C17.0908 17.4382 16.6756 17.334 16.335 17.1257C16.0582 16.9486 15.7388 16.8861 15.3982 16.8861C14.3443 16.8861 13.4607 17.7507 13.4288 18.7819C13.4288 19.9798 12.4494 20.9173 11.2252 20.9173H9.7774C8.54253 20.9173 7.56316 19.9798 7.56316 18.7819C7.54187 17.7507 6.6583 16.8861 5.6044 16.8861C5.25311 16.8861 4.93374 16.9486 4.66761 17.1257C4.32696 17.334 3.90114 17.4382 3.5392 17.4382C2.77273 17.4382 2.0382 17.0215 1.64432 16.3548L0.909786 15.1048C0.515907 14.4277 0.494616 13.6152 0.888496 12.9694C1.05882 12.6569 1.37818 12.3444 1.74013 12.1465C2.0382 12.0007 2.22981 11.7611 2.41079 11.4798C2.94306 10.584 2.62369 9.4069 1.71884 8.87565C0.664942 8.2819 0.32429 6.95898 0.931077 5.92773L1.64432 4.69857C2.26175 3.66732 3.58178 3.30273 4.64632 3.9069C5.57247 4.4069 6.7754 4.07357 7.31831 3.18815C7.48864 2.89648 7.58445 2.58398 7.56316 2.27148C7.54187 1.86523 7.65896 1.47982 7.86123 1.16732C8.25511 0.521484 8.96835 0.104818 9.74546 0.0839844H11.2465C12.0342 0.0839844 12.7475 0.521484 13.1413 1.16732C13.333 1.47982 13.4607 1.86523 13.4288 2.27148C13.4075 2.58398 13.5033 2.89648 13.6736 3.18815C14.2165 4.07357 15.4195 4.4069 16.3562 3.9069C17.4101 3.30273 18.7408 3.66732 19.3476 4.69857L20.0608 5.92773C20.6783 6.95898 20.3376 8.2819 19.2731 8.87565C18.3682 9.4069 18.0489 10.584 18.5918 11.4798C18.7621 11.7611 18.9537 12.0007 19.2518 12.1465ZM7.48862 10.5112C7.48862 12.1466 8.84059 13.4487 10.5119 13.4487C12.1832 13.4487 13.5033 12.1466 13.5033 10.5112C13.5033 8.87574 12.1832 7.56325 10.5119 7.56325C8.84059 7.56325 7.48862 8.87574 7.48862 10.5112Z" fill="url(#paint0_linear_736_1254)"/>
<defs>
<linearGradient id="paint0_linear_736_1254" x1="0.603515" y1="10.5007" x2="22.3768" y2="10.2578" gradientUnits="userSpaceOnUse">
<stop stop-color="#118E97"/>
<stop offset="0.9999" stop-color="#30BFCA"/>
<stop offset="1" stop-color="#30C7D2"/>
</linearGradient>
</defs>
</svg>
