<svg width="18" height="20" viewBox="0 0 18 20" fill="none" xmlns="http://www.w3.org/2000/svg">
<g clip-path="url(#clip0_548_5043)">
<path d="M8.96889 16.6719C6.77118 16.6719 4.57347 16.6763 2.37514 16.67C1.35633 16.6669 0.685306 15.8982 0.846009 14.9388C0.91164 14.5488 1.13491 14.2613 1.41767 14.005C2.2997 13.2063 2.88731 12.2207 3.12898 11.0432C3.22221 10.5882 3.25165 10.115 3.26637 9.64878C3.28845 8.92003 3.26208 8.19066 3.27557 7.46128C3.32832 4.64316 5.16292 2.37941 7.86911 1.79441C8.09238 1.74628 8.21076 1.66878 8.18377 1.41003C8.16108 1.19441 8.17089 0.971909 8.18991 0.755034C8.22855 0.316284 8.56345 0.00503375 8.98238 -0.00184125C9.41849 -0.00871625 9.76504 0.301909 9.80614 0.754409C9.82577 0.971284 9.83497 1.19378 9.81289 1.40941C9.7859 1.66753 9.90305 1.74691 10.1275 1.79378C11.8628 2.15691 13.1539 3.14878 14.0237 4.71003C14.5132 5.58816 14.7278 6.54566 14.7254 7.55441C14.7235 8.25253 14.7291 8.95003 14.7248 9.64816C14.715 11.4032 15.3363 12.8713 16.6219 14.0488C17.2402 14.615 17.3506 15.4075 16.9194 16.0382C16.5974 16.5088 16.1355 16.6725 15.5921 16.6719C13.3852 16.67 11.177 16.6719 8.96889 16.6719Z" fill="white"/>
<path d="M17.9989 7.73489C17.9989 7.88052 18.0019 8.02552 17.9983 8.17114C17.9841 8.70802 17.656 9.06489 17.1776 9.06489C16.7004 9.06489 16.3667 8.70677 16.3581 8.17302C16.3293 6.34364 15.8196 4.67114 14.7725 3.18114C14.5063 2.80177 14.1947 2.45489 13.8911 2.10426C13.5237 1.67927 13.5041 1.20302 13.8568 0.85739C14.2052 0.51614 14.6959 0.54364 15.0768 0.945515C16.8746 2.83926 17.8418 5.10364 17.9989 7.73489Z" fill="white"/>
<path d="M0.0171744 7.71647C0.15457 5.15459 1.08505 2.93834 2.80495 1.06584C3.26988 0.559591 3.74893 0.483341 4.13228 0.848341C4.523 1.21959 4.47823 1.70147 4.00961 2.20834C2.4725 3.87084 1.69291 5.84959 1.64138 8.12897C1.6285 8.70897 1.30341 9.07334 0.801677 9.06459C0.317113 9.05584 0 8.68522 0 8.12147C0 7.98647 0.0110407 7.85147 0.0171744 7.71647Z" fill="white"/>
<path d="M11.9848 17.5215C11.7383 18.9353 10.4465 20.0009 9.00017 20.0009C7.5563 20.0009 6.26393 18.9365 6.01367 17.5215C7.99915 17.5215 9.98157 17.5215 11.9848 17.5215Z" fill="white"/>
</g>
<defs>
<clipPath id="clip0_548_5043">
<rect width="18" height="20" fill="white"/>
</clipPath>
</defs>
</svg>
