<svg width="22" height="22" viewBox="0 0 22 22" fill="none" xmlns="http://www.w3.org/2000/svg">
<g clip-path="url(#clip0_548_5027)">
<path d="M19.3088 6.47852C19.3088 8.31345 19.3088 10.1291 19.3088 11.9517C15.0341 10.4866 10.538 14.5415 11.9617 19.3093C11.8352 19.3169 11.7177 19.3293 11.6001 19.3293C8.00324 19.33 4.40567 19.3306 0.80878 19.33C0.207924 19.33 0.000305546 19.1237 0.000305546 18.5304C-0.000381932 14.624 0.000305546 10.7176 0.000305546 6.81058C0.000305546 6.70883 0.000305546 6.60708 0.000305546 6.47852C6.43854 6.47852 12.8575 6.47852 19.3088 6.47852ZM2.58316 9.65752C2.58316 10.0466 2.58316 10.4365 2.58316 10.8256C2.58316 10.8373 2.58316 10.8483 2.58316 10.86C2.59485 11.3515 2.83615 11.6025 3.32426 11.6059C4.11418 11.6121 4.90478 11.6114 5.69469 11.6059C6.17799 11.6025 6.44473 11.3426 6.44885 10.8661C6.45573 10.0645 6.45642 9.26289 6.44885 8.46127C6.44473 8.0082 6.19517 7.74833 5.75244 7.74352C4.92815 7.73389 4.10318 7.73458 3.27889 7.74283C2.82378 7.74764 2.59347 7.99033 2.58522 8.45508C2.57835 8.85589 2.58385 9.2567 2.58316 9.65752ZM9.66763 7.74077C9.25514 7.74077 8.84265 7.7332 8.43085 7.74283C7.99018 7.75245 7.74819 7.98758 7.74269 8.42552C7.73375 9.24983 7.73375 10.0748 7.742 10.8991C7.74613 11.3453 8.00255 11.6011 8.45079 11.6059C9.26408 11.6141 10.0774 11.6141 10.89 11.6059C11.3306 11.6011 11.5994 11.3357 11.6043 10.8971C11.6139 10.0838 11.6132 9.27114 11.6049 8.45783C11.6001 7.99514 11.343 7.75039 10.8693 7.74283C10.4692 7.73527 10.0684 7.74077 9.66763 7.74077ZM16.7638 9.66714C16.7638 9.26633 16.77 8.86552 16.7624 8.4647C16.7535 7.99789 16.5039 7.74695 16.0337 7.74283C15.2321 7.73595 14.4305 7.73664 13.6289 7.74214C13.1311 7.74558 12.9008 7.98208 12.8974 8.4867C12.8919 9.27664 12.8919 10.0673 12.8974 10.8572C12.9008 11.3495 13.149 11.6025 13.6344 11.6066C14.4243 11.6128 15.2149 11.6121 16.0048 11.6066C16.5025 11.6031 16.7576 11.3405 16.7631 10.8352C16.7672 10.4461 16.7638 10.0563 16.7638 9.66714ZM2.58385 14.8165C2.58385 15.229 2.57697 15.6415 2.58591 16.0533C2.59554 16.5002 2.84647 16.7566 3.29333 16.7615C4.10661 16.7697 4.91921 16.7697 5.7325 16.7615C6.17386 16.7566 6.44335 16.492 6.44885 16.054C6.45848 15.2407 6.4571 14.4281 6.44954 13.6148C6.44542 13.1631 6.1938 12.9046 5.74969 12.8998C4.9254 12.8908 4.10043 12.8908 3.27614 12.8998C2.82172 12.9046 2.59347 13.148 2.58522 13.6148C2.57835 14.0149 2.58385 14.4157 2.58385 14.8165ZM9.625 16.7642C10.0375 16.7642 10.4493 16.769 10.8618 16.7628C11.3265 16.756 11.5994 16.4988 11.6043 16.0465C11.6132 15.2331 11.6132 14.4205 11.6043 13.6072C11.5994 13.1596 11.3444 12.9046 10.8968 12.8998C10.0836 12.8915 9.27095 12.8922 8.45766 12.8991C7.97918 12.9032 7.74475 13.1411 7.74062 13.623C7.73444 14.4246 7.73375 15.2263 7.74062 16.0279C7.74475 16.514 7.99705 16.7573 8.49066 16.7635C8.86946 16.7683 9.24758 16.7642 9.625 16.7642Z" fill="white"/>
<path d="M15.4649 1.31067C16.5525 1.30585 17.6401 1.29485 18.7276 1.29967C19.057 1.30104 19.3175 1.5341 19.3209 1.84967C19.3347 2.93592 19.3264 4.02285 19.3264 5.13317C12.8875 5.13317 6.46853 5.13317 0.00142553 5.13317C0.00142553 5.0156 0.00142553 4.8946 0.00142553 4.7736C0.00142553 3.86885 5.05712e-05 2.9641 0.00211301 2.05867C0.00280048 1.5121 0.222106 1.29692 0.776901 1.29485C1.3592 1.29279 1.94149 1.29417 2.57534 1.29417C2.57534 1.07417 2.56916 0.884416 2.57672 0.694666C2.59253 0.273228 2.84965 0.000290838 3.22295 -0.00108416C3.60244 -0.00177166 3.85405 0.268416 3.86093 0.691916C3.86437 0.898166 3.85818 1.10442 3.8568 1.30998C3.43951 1.30998 3.02152 1.30998 2.58772 1.30998C2.58772 1.98029 2.57603 2.60867 2.59184 3.23635C2.60147 3.61448 2.87509 3.85648 3.23326 3.85235C3.59281 3.84823 3.84993 3.60073 3.85474 3.21917C3.8623 2.5791 3.85062 1.93973 3.84718 1.29967C4.28579 1.3031 4.7244 1.30654 5.16301 1.30998L5.15339 1.30035C5.15545 1.89298 5.15614 2.48629 5.15958 3.07892C5.16233 3.56498 5.38919 3.8441 5.78518 3.85304C6.19629 3.86198 6.44722 3.57254 6.45272 3.07823C6.45891 2.4856 6.46304 1.89298 6.46853 1.30035L6.46097 1.30929C8.18242 1.30585 9.90386 1.30242 11.6253 1.29967C11.6219 1.95073 11.6095 2.60248 11.6191 3.25354C11.6239 3.59523 11.8762 3.83379 12.2035 3.85235C12.539 3.8716 12.8476 3.66742 12.8621 3.33879C12.891 2.67054 12.871 2.00023 12.871 1.30998C12.4324 1.30998 12.024 1.30998 11.615 1.30998C11.6136 1.08173 11.6033 0.852791 11.6116 0.624541C11.6253 0.269791 11.8749 0.0154158 12.2097 -0.00108416C12.5623 -0.0182717 12.8504 0.220978 12.8841 0.586041C12.9047 0.808791 12.8882 1.03498 12.8882 1.30998C13.3488 1.30998 13.7572 1.30998 14.1662 1.30998L14.1587 1.30104C14.1642 1.90467 14.1669 2.50898 14.1752 3.1126C14.1814 3.57667 14.4419 3.86198 14.842 3.85304C15.227 3.8441 15.4635 3.56842 15.4676 3.11329C15.4724 2.50898 15.4724 1.90467 15.4745 1.30035C15.4738 1.30035 15.4649 1.31067 15.4649 1.31067Z" fill="white"/>
<path d="M12.9834 17.4436C12.9896 14.9652 15.006 12.9783 17.5111 12.9824C20.0012 12.9866 22.0038 15.0161 21.999 17.5309C21.9942 19.9963 19.9544 22.0059 17.4644 21.999C14.9805 21.9921 12.9772 19.9564 12.9834 17.4436ZM16.9 17.8884C16.7611 17.777 16.7082 17.7351 16.6559 17.6925C16.328 17.4278 15.9932 17.4306 15.7395 17.7007C15.4783 17.9792 15.49 18.3009 15.7856 18.6124C15.9898 18.8275 16.1974 19.0414 16.4181 19.24C16.6738 19.4717 17.0107 19.4875 17.2547 19.2504C17.9271 18.5986 18.5891 17.9352 19.2422 17.2635C19.4725 17.027 19.4657 16.6901 19.2725 16.4502C19.0209 16.1381 18.6029 16.1222 18.2866 16.4406C17.8205 16.9094 17.3716 17.3948 16.9 17.8884Z" fill="white"/>
<path d="M5.16132 1.31187C5.15925 1.09393 5.14963 0.876683 5.15719 0.659433C5.16957 0.281308 5.41912 0.0173083 5.7663 0.000808317C6.1286 -0.0163792 6.42146 0.242121 6.45103 0.624371C6.46821 0.852621 6.4579 1.08225 6.45996 1.31187L6.46753 1.30293C6.02891 1.30293 5.59099 1.30293 5.15238 1.30293C5.15169 1.30156 5.16132 1.31187 5.16132 1.31187Z" fill="white"/>
<path d="M14.1658 1.31106C14.1671 1.09312 14.1603 0.875188 14.172 0.657937C14.1933 0.267437 14.4641 0 14.8244 0C15.1894 0 15.4541 0.266062 15.4679 0.658625C15.4754 0.875875 15.4658 1.09381 15.4637 1.31106L15.4734 1.30144C15.0347 1.30144 14.5968 1.30144 14.1582 1.30144L14.1658 1.31106Z" fill="white"/>
<path d="M3.87793 9.03125C4.30898 9.03125 4.71322 9.03125 5.13739 9.03125C5.13739 9.45337 5.13739 9.85831 5.13739 10.2887C4.7249 10.2887 4.31242 10.2887 3.87793 10.2887C3.87793 9.87825 3.87793 9.474 3.87793 9.03125Z" fill="white"/>
<path d="M9.03516 9.0293C9.46277 9.0293 9.86701 9.0293 10.2926 9.0293C10.2926 9.45005 10.2926 9.85499 10.2926 10.2867C9.88419 10.2867 9.47102 10.2867 9.03516 10.2867C9.03516 9.87974 9.03516 9.47548 9.03516 9.0293Z" fill="white"/>
<path d="M15.4488 10.2985C15.0233 10.2985 14.6183 10.2985 14.1914 10.2985C14.1914 9.87976 14.1914 9.47483 14.1914 9.04102C14.6025 9.04102 15.015 9.04102 15.4488 9.04102C15.4488 9.44939 15.4488 9.85433 15.4488 10.2985Z" fill="white"/>
<path d="M5.13876 14.1953C5.13876 14.6092 5.13876 15.0141 5.13876 15.4445C4.72421 15.4445 4.31173 15.4445 3.87793 15.4445C3.87793 15.032 3.87793 14.6271 3.87793 14.1953C4.29385 14.1953 4.70634 14.1953 5.13876 14.1953Z" fill="white"/>
<path d="M10.2863 15.4618C9.8649 15.4618 9.46823 15.4618 9.04199 15.4618C9.04199 15.0424 9.04199 14.6299 9.04199 14.1934C9.44898 14.1934 9.85322 14.1934 10.2863 14.1934C10.2863 14.6024 10.2863 15.0149 10.2863 15.4618Z" fill="white"/>
</g>
<defs>
<clipPath id="clip0_548_5027">
<rect width="22" height="22" fill="white"/>
</clipPath>
</defs>
</svg>
