<svg width="18" height="22" viewBox="0 0 18 22" fill="none" xmlns="http://www.w3.org/2000/svg">
<g clip-path="url(#clip0_548_5041)">
<path d="M15.232 2.74886C15.8999 2.74886 16.5311 2.74679 17.1624 2.74954C17.7541 2.75161 17.9999 2.99634 17.9999 3.58962C18.0006 9.444 18.0006 15.2977 17.9999 21.1521C17.9999 21.7639 17.7583 21.9997 17.1374 21.9997C12.3741 22.0004 7.61003 22.0011 2.84666 21.999C1.20835 21.9983 0.00401188 20.809 0.00331973 19.1805C-0.000141012 13.5213 0.000551136 7.86147 0.00331973 2.20233C0.00331973 0.87416 0.880963 0.0017767 2.2092 0.00108925C6.26934 -0.000973124 10.3295 0.00040179 14.3896 0.00108925C14.9835 0.00108925 15.2292 0.245137 15.2313 0.834975C15.2333 1.453 15.232 2.07102 15.232 2.74886ZM8.99017 17.8722C10.3495 17.8722 11.7096 17.8757 13.069 17.8708C13.5708 17.8688 13.8359 17.6021 13.8428 17.105C13.849 16.6589 13.8504 16.212 13.8421 15.7659C13.8068 13.8939 12.3028 12.4049 10.4125 12.3794C9.46775 12.3664 8.52297 12.3671 7.57819 12.3801C6.04162 12.4008 4.6857 13.3893 4.31955 14.8722C4.14998 15.5582 4.18805 16.2986 4.16313 17.0157C4.14167 17.6275 4.40261 17.8722 5.01516 17.8729C6.33993 17.8736 7.66471 17.8729 8.99017 17.8722ZM11.7664 8.24232C11.7629 6.74367 10.5191 5.50693 9.01093 5.50281C7.48682 5.49868 6.23265 6.74367 6.23542 8.25676C6.23888 9.75542 7.48267 10.9922 8.99086 10.9963C10.515 11.0011 11.7698 9.75542 11.7664 8.24232ZM13.8324 1.38975C13.7182 1.38425 13.6393 1.37738 13.5597 1.37738C9.7806 1.37669 6.00078 1.37669 2.22165 1.37738C2.14137 1.37738 2.059 1.37463 1.98009 1.38769C1.64579 1.44269 1.39661 1.72798 1.39108 2.05315C1.38554 2.39138 1.64371 2.68836 1.99394 2.74061C2.07284 2.75229 2.15521 2.74886 2.2355 2.74886C5.99178 2.74954 9.74807 2.74886 13.5044 2.74886C13.613 2.74886 13.7217 2.74886 13.8317 2.74886C13.8324 2.26832 13.8324 1.84691 13.8324 1.38975Z" fill="white"/>
</g>
<defs>
<clipPath id="clip0_548_5041">
<rect width="18" height="22" fill="white"/>
</clipPath>
</defs>
</svg>
