<svg width="22" height="22" viewBox="0 0 22 22" fill="none" xmlns="http://www.w3.org/2000/svg">
<path d="M19.2489 1.83398H13.7489C13.5058 1.83398 13.2726 1.93056 13.1007 2.10247C12.9288 2.27438 12.8322 2.50754 12.8322 2.75065C12.8322 2.99377 12.9288 3.22692 13.1007 3.39883C13.2726 3.57074 13.5058 3.66732 13.7489 3.66732H17.0361L9.43414 11.2692C9.34659 11.3538 9.27676 11.4549 9.22872 11.5668C9.18068 11.6786 9.15539 11.7989 9.15433 11.9206C9.15327 12.0423 9.17647 12.163 9.22256 12.2757C9.26865 12.3883 9.33671 12.4907 9.42278 12.5768C9.50885 12.6628 9.6112 12.7309 9.72385 12.777C9.83651 12.8231 9.95721 12.8463 10.0789 12.8452C10.2006 12.8442 10.3209 12.8189 10.4328 12.7708C10.5446 12.7228 10.6458 12.653 10.7303 12.5654L18.3322 4.96348V8.25065C18.3322 8.49377 18.4288 8.72692 18.6007 8.89883C18.7726 9.07074 19.0058 9.16732 19.2489 9.16732C19.492 9.16732 19.7252 9.07074 19.8971 8.89883C20.069 8.72692 20.1656 8.49377 20.1656 8.25065V2.75065C20.1656 2.50754 20.069 2.27438 19.8971 2.10247C19.7252 1.93056 19.492 1.83398 19.2489 1.83398Z" fill="url(#paint0_linear_665_6109)"/>
<path d="M17.4173 9.70502C17.1742 9.70502 16.941 9.80159 16.7691 9.9735C16.5972 10.1454 16.5007 10.3786 16.5007 10.6217V17.1878C16.5004 17.4913 16.3797 17.7824 16.165 17.9971C15.9504 18.2117 15.6593 18.3324 15.3557 18.3327H4.81223C4.50866 18.3324 4.21759 18.2117 4.00292 17.9971C3.78826 17.7824 3.66756 17.4913 3.66732 17.1878V6.64427C3.66756 6.34069 3.78826 6.04962 4.00292 5.83496C4.21759 5.62029 4.50866 5.49959 4.81223 5.49935H10.5157C10.7588 5.49935 10.992 5.40277 11.1639 5.23086C11.3358 5.05896 11.4324 4.8258 11.4324 4.58268C11.4324 4.33957 11.3358 4.10641 11.1639 3.9345C10.992 3.76259 10.7588 3.66602 10.5157 3.66602H4.81223C4.02265 3.66699 3.26569 3.98108 2.70737 4.5394C2.14905 5.09772 1.83495 5.85468 1.83398 6.64427V17.1859C1.83447 17.9758 2.14835 18.7333 2.70672 19.292C3.26509 19.8507 4.02233 20.165 4.81223 20.166H15.3539C16.1438 20.1655 16.9012 19.8517 17.46 19.2933C18.0187 18.7349 18.333 17.9777 18.334 17.1878V10.6217C18.334 10.3786 18.2374 10.1454 18.0655 9.9735C17.8936 9.80159 17.6604 9.70502 17.4173 9.70502Z" fill="url(#paint1_linear_665_6109)"/>
<defs>
<linearGradient id="paint0_linear_665_6109" x1="9.1543" y1="7.33962" x2="21.2679" y2="7.1974" gradientUnits="userSpaceOnUse">
<stop stop-color="#118E97"/>
<stop offset="0.9999" stop-color="#30BFCA"/>
<stop offset="1" stop-color="#30C7D2"/>
</linearGradient>
<linearGradient id="paint1_linear_665_6109" x1="1.83398" y1="11.916" x2="19.9858" y2="11.7029" gradientUnits="userSpaceOnUse">
<stop stop-color="#118E97"/>
<stop offset="0.9999" stop-color="#30BFCA"/>
<stop offset="1" stop-color="#30C7D2"/>
</linearGradient>
</defs>
</svg>
