<svg width="41" height="54" viewBox="0 0 41 54" fill="none" xmlns="http://www.w3.org/2000/svg">
<g clip-path="url(#clip0_666_3901)">
<path d="M22.0721 41.5674C22.0721 42.2237 22.0721 42.7518 22.0721 43.2799C22.0721 46.2882 22.0788 49.2964 22.0638 52.303C22.0587 53.1955 21.5675 53.8349 20.8207 53.9682C20.0772 54.1015 19.4808 53.8113 19.155 53.1381C18.9929 52.8041 18.9695 52.3789 18.9679 51.9959C18.9545 48.8763 18.9595 45.755 18.9595 42.6354C18.9595 42.3283 18.9595 42.0213 18.9595 41.6332C13.0083 45.345 7.43473 45.1898 2.99055 39.5226C-0.536384 35.0228 0.0183024 30.1654 3.27291 25.5392C0.297316 22.838 -0.848813 19.5362 0.669892 15.6894C2.08835 12.0974 4.97205 10.4709 8.77299 10.3849C8.98518 9.59529 9.15058 8.79894 9.41289 8.03633C11.1972 2.86174 16.0624 -0.360785 21.4606 0.0323287C26.6683 0.410258 31.049 4.4072 32.0531 9.71676C32.1417 10.1892 32.2703 10.4203 32.8334 10.4473C36.4539 10.6194 39.4178 12.7183 40.487 15.9678C41.6566 19.5193 40.8128 22.6068 38.1112 25.1731C38.011 25.2692 37.9141 25.3688 37.8172 25.47C37.7988 25.4886 37.7938 25.5206 37.7554 25.6151C39.807 28.2471 40.7143 31.252 40.1813 34.6348C39.797 37.0728 38.7077 39.1564 36.9634 40.8807C33.0606 44.7427 28.1503 44.9958 22.0721 41.5674ZM18.9645 29.4585C18.597 29.1228 18.3915 28.9523 18.2043 28.7634C17.237 27.7933 16.278 26.813 15.3089 25.8462C14.4769 25.0161 13.5647 24.9436 12.8864 25.637C12.2197 26.3187 12.2983 27.2534 13.1186 28.0885C14.8846 29.882 16.6422 31.6856 18.4416 33.4419C18.8492 33.8401 18.9779 34.2315 18.9712 34.7681C18.9512 36.651 18.9612 38.5339 18.9662 40.4168C18.9662 40.6715 19.0013 40.9246 19.0364 41.4156C20.0739 40.0405 21.0312 40.3611 22.0638 41.3295C22.0638 40.8099 22.0638 40.5045 22.0638 40.1991C22.0638 36.4046 22.0437 32.6102 22.0888 28.8174C22.0938 28.3483 22.3344 27.7831 22.6519 27.4373C23.8431 26.1398 25.1212 24.9234 26.3459 23.658C26.6115 23.3846 26.8855 23.0556 26.9908 22.703C27.2013 21.9978 27.0075 21.3516 26.3542 20.9467C25.6792 20.5282 25.0076 20.6092 24.4362 21.1474C23.6944 21.8459 22.9877 22.5815 22.2676 23.302C22.2008 23.275 22.1323 23.2463 22.0654 23.2193C22.0654 22.924 22.0654 22.6288 22.0654 22.3335C22.0654 19.9732 22.0654 17.6128 22.0654 15.2507C22.0654 14.4915 22.0805 13.7323 22.0587 12.9747C22.0303 11.9793 21.4205 11.3331 20.5384 11.3196C19.6245 11.3061 19.0063 11.9692 18.9679 13.0101C18.9595 13.2632 18.9645 13.5163 18.9645 13.7694C18.9645 18.6318 18.9645 23.4943 18.9645 28.3551C18.9645 28.647 18.9645 28.9439 18.9645 29.4585Z" fill="url(#paint0_linear_666_3901)"/>
</g>
<defs>
<linearGradient id="paint0_linear_666_3901" x1="-2.67871e-07" y1="26.9999" x2="45.1076" y2="26.5978" gradientUnits="userSpaceOnUse">
<stop stop-color="#118E97"/>
<stop offset="0.9999" stop-color="#30BFCA"/>
<stop offset="1" stop-color="#30C7D2"/>
</linearGradient>
<clipPath id="clip0_666_3901">
<rect width="41" height="54" fill="white"/>
</clipPath>
</defs>
</svg>
