<svg width="58" height="58" viewBox="0 0 58 58" fill="none" xmlns="http://www.w3.org/2000/svg">
<g clip-path="url(#clip0_548_2921)">
<mask id="mask0_548_2921" style="mask-type:alpha" maskUnits="userSpaceOnUse" x="0" y="0" width="58" height="58">
<path d="M57.7039 0H0.00146484V58H57.7039V0Z" fill="black"/>
</mask>
<g mask="url(#mask0_548_2921)">
<path d="M56.2937 25.2051L53.1621 28.1375L51.1914 29.2407L54.323 26.3093L56.2937 25.2051Z" fill="#06576F"/>
<path d="M27.55 2.60219L24.4194 5.53343L25.1388 3.17449L28.2704 0.242188L27.55 2.60219Z" fill="#06576F"/>
<path d="M54.8497 45.3252L51.718 48.2566L49.2324 47.4079L52.3631 44.4766L54.8497 45.3252Z" fill="#06576F"/>
<path d="M10.9612 7.81211L7.82952 10.7434L6.50293 8.10324L9.63352 5.17188L10.9612 7.81211Z" fill="#06576F"/>
<path d="M10.0658 8.93948L6.93506 11.8707L7.82917 10.7437L10.9608 7.8125L10.0658 8.93948Z" fill="#06576F"/>
<path d="M9.53009 9.61685L6.39844 12.5481L6.93526 11.8708L10.066 8.93945L9.53009 9.61685Z" fill="#06576F"/>
<path d="M8.63413 10.7442L5.50342 13.6754L6.39848 12.5484L9.53014 9.61719L8.63413 10.7442Z" fill="#06576F"/>
<path d="M51.2626 49.8457L48.1319 52.7771C45.0072 55.6797 40.8803 57.5475 36.0537 58.001L39.1844 55.0696C44.011 54.6161 48.1379 52.7483 51.2626 49.8457Z" fill="#06576F"/>
<path d="M39.1847 55.0692L36.054 58.0006L34.4653 55.694L37.597 52.7617L39.1847 55.0692Z" fill="#06576F"/>
<path d="M37.5968 52.7605L34.4652 55.6928L32.8696 55.6374L36.0013 52.7051L37.5968 52.7605Z" fill="#06576F"/>
<path d="M36.0013 52.7066L32.8697 55.6389L31.9121 55.6052L35.0428 52.6738L36.0013 52.7066Z" fill="#06576F"/>
<path d="M35.0428 52.6736L31.9121 55.6049L30.3164 55.5495L33.4471 52.6172L35.0428 52.6736Z" fill="#06576F"/>
<path d="M6.14663 26.2691L3.01592 29.2005L2.68555 27.5505L5.81614 24.6191L6.14663 26.2691Z" fill="#06576F"/>
<path d="M3.22907 23.2886L0.0983646 26.2199C-0.333277 21.1297 0.670883 16.5149 2.8113 12.7556L5.94201 9.82422C3.80159 13.5845 2.79838 18.1984 3.22907 23.2886Z" fill="#06576F"/>
<path d="M5.81574 24.6201L2.68503 27.5514L0.0981445 26.2204L3.22885 23.2891L5.81574 24.6201Z" fill="#06576F"/>
<path d="M6.34472 27.2598L3.21413 30.1921L3.01562 29.2009L6.14633 26.2695L6.34472 27.2598Z" fill="#06576F"/>
<path d="M6.67544 28.9096L3.54473 31.842L3.21436 30.1921L6.34495 27.2598L6.67544 28.9096Z" fill="#06576F"/>
<path d="M18.6723 46.3146L15.5406 49.246L14.1792 48.0398L17.3098 45.1074L18.6723 46.3146Z" fill="#06576F"/>
<path d="M17.3096 45.1076L14.1789 48.04L13.3623 47.3161L16.4929 44.3848L17.3096 45.1076Z" fill="#06576F"/>
<path d="M16.4931 44.384L13.3624 47.3154L12 46.11L15.1307 43.1777L16.4931 44.384Z" fill="#06576F"/>
<path d="M18.4031 48.7853L15.2725 51.7177L15.5403 49.2458L18.672 46.3145L18.4031 48.7853Z" fill="#06576F"/>
<path d="M32.7625 54.8598L29.6318 57.7912C24.5582 57.0168 19.6186 54.8569 15.2725 51.7165L18.4032 48.7852C22.7493 51.9265 27.6889 54.0863 32.7625 54.8598Z" fill="#06576F"/>
<path d="M15.1307 43.1777L12.0001 46.11L9.71973 46.828L12.8504 43.8957L15.1307 43.1777Z" fill="#06576F"/>
<path d="M21.7095 0L23.4014 2.45799L24.997 2.51349L25.9546 2.54722L27.5502 2.60272L28.2697 0.24284C33.3392 1.05396 38.2669 3.24355 42.5973 6.40852L42.3265 8.90509L43.6879 10.1112L44.5046 10.8351L45.867 12.0413L48.1245 11.3303C51.8109 15.3034 54.6854 20.0639 56.2929 25.2057L54.3222 26.3099L54.6526 27.9598L54.8511 28.9501L55.1815 30.5999L57.6096 31.8497C58.0303 36.9489 57.0092 41.5677 54.85 45.325L52.3633 44.4762L51.4683 45.6032L50.9315 46.2795L50.0375 47.4075L51.2629 49.8456C48.1382 52.7482 44.0113 54.616 39.1847 55.0695L37.5961 52.762L36.0004 52.7065L35.0429 52.6729L33.4472 52.6174L32.7625 54.8605C27.689 54.086 22.7494 51.9262 18.4032 48.7859L18.6722 46.3141L17.3107 45.1079L16.494 44.384L15.1307 43.1779L12.8504 43.8959C9.14426 39.9445 6.24277 35.1999 4.60253 30.0701L6.67536 28.9093L6.34499 27.2595L6.14648 26.2692L5.81611 24.6194L3.22922 23.2883C2.79758 18.198 3.80174 13.5832 5.94216 9.8239L8.63518 10.743L9.53024 9.61598L10.0671 8.93858L10.9611 7.8116L9.63341 5.17243C12.7641 2.29065 16.889 0.44071 21.7095 0Z" fill="url(#paint0_linear_548_2921)"/>
<path d="M12.8503 43.8961L9.7196 46.8275C6.01341 42.8761 3.11204 38.1315 1.47168 33.0017L4.60239 30.0703C6.24263 35.2012 9.14411 39.9458 12.8503 43.8961Z" fill="#06576F"/>
<path d="M35.8226 31.4265L32.6909 34.3579L43.6428 17.0056L46.7733 14.0742L35.8226 31.4265Z" fill="#D2D2D2"/>
<path d="M39.5827 40.7441L36.452 43.6755C36.0035 44.0954 35.3813 44.3232 34.6709 44.2984L37.8016 41.3671C38.5122 41.3929 39.1343 41.164 39.5827 40.7441Z" fill="#D2D2D2"/>
<path d="M46.7738 14.0742L40.2346 39.6205C39.9518 40.7277 39.0032 41.4081 37.8025 41.3664L30.4814 41.1109L35.824 31.4256L46.7738 14.0742Z" fill="white"/>
<path d="M37.8014 41.3668L34.6707 44.2982L27.3496 44.0427L30.4803 41.1113L37.8014 41.3668Z" fill="#D2D2D2"/>
<path d="M30.4803 41.1111L27.3496 44.0425L32.6911 34.3571L35.8227 31.4258L30.4803 41.1111Z" fill="#D2D2D2"/>
<path d="M29.3095 41.0721L26.1788 44.0035L13.4497 20.321L16.5804 17.3887L29.3095 41.0721Z" fill="#D2D2D2"/>
<path d="M22.2986 17.5887C23.6333 17.6352 24.9966 18.5513 25.6943 19.8723L33.2039 34.0894L29.3102 41.0721L16.5801 17.3887L22.2986 17.5887Z" fill="white"/>
</g>
</g>
<defs>
<linearGradient id="paint0_linear_548_2921" x1="-1.95381" y1="-13.4508" x2="50.5275" y2="56.2188" gradientUnits="userSpaceOnUse">
<stop stop-color="#3A7BD5"/>
<stop offset="1" stop-color="#1F9898"/>
</linearGradient>
<clipPath id="clip0_548_2921">
<rect width="57.7026" height="58" fill="white"/>
</clipPath>
</defs>
</svg>
