<svg width="20" height="20" viewBox="0 0 20 20" fill="none" xmlns="http://www.w3.org/2000/svg">
<g clip-path="url(#clip0_496_3999)">
<path d="M18.6272 1.37297C16.7966 -0.457651 13.8287 -0.457651 11.9981 1.37293L8.08032 5.29067C6.18676 7.1843 6.36208 10.2015 8.08032 11.9198C8.36805 12.2075 8.68641 12.4422 9.02258 12.6348L9.73762 11.9198C10.2066 11.4507 10.0415 10.9024 10.0331 10.5068C9.93016 10.4338 9.83004 10.3549 9.73762 10.2625C8.85587 9.38083 8.81622 7.86934 9.73762 6.94793C9.87446 6.8111 13.5722 3.11332 13.6553 3.03028C14.5693 2.11625 16.0558 2.11625 16.9698 3.03028C17.8839 3.9443 17.8839 5.43082 16.9698 6.34485L14.3803 8.93442C14.4552 9.34875 14.9046 10.3302 14.6734 11.9493C14.6847 11.9382 14.6982 11.9311 14.7095 11.9198L18.6272 8.00211C20.4577 6.17149 20.4577 3.2036 18.6272 1.37297Z" fill="white"/>
<path d="M12.2229 7.77559C11.9352 7.48785 11.6168 7.25324 11.2807 7.06055L10.5656 7.77559C10.0966 8.24457 10.2616 8.79289 10.2701 9.18855C10.3731 9.26152 10.4732 9.34039 10.5656 9.43281C11.4474 10.3146 11.487 11.826 10.5656 12.7474C10.4285 12.8845 6.42441 16.8886 6.3443 16.9687C5.43027 17.8827 3.94375 17.8827 3.02973 16.9687C2.1157 16.0547 2.1157 14.5682 3.02973 13.6541L5.92297 10.7609C5.84809 10.3466 5.39863 9.36508 5.62984 7.74602C5.61855 7.75711 5.60496 7.76434 5.59371 7.77555L1.37242 11.9969C-0.458125 13.8275 -0.458125 16.7954 1.37242 18.6261C3.20305 20.4566 6.1709 20.4566 8.00152 18.6261L12.2229 14.4047C14.0813 12.5463 13.9797 9.53242 12.2229 7.77559Z" fill="white"/>
</g>
<defs>
<clipPath id="clip0_496_3999">
<rect width="20" height="20" fill="white"/>
</clipPath>
</defs>
</svg>
