<svg width="30" height="30" viewBox="0 0 30 30" fill="none" xmlns="http://www.w3.org/2000/svg">
<path d="M11.7773 30L22.9687 30C25.5535 30 27.6562 27.8973 27.6562 25.3125L27.6562 9.43359C27.6562 6.84883 25.5535 4.74609 22.9688 4.74609L11.7773 4.74609C9.19258 4.74609 7.08984 6.84883 7.08984 9.43359L7.08984 25.3125C7.08984 27.8973 9.19258 30 11.7773 30ZM22.9688 7.08984C24.261 7.08984 25.3125 8.14133 25.3125 9.43359L25.3125 25.3125C25.3125 26.6048 24.261 27.6562 22.9687 27.6562L11.7773 27.6562C10.4851 27.6562 9.43359 26.6048 9.43359 25.3125L9.43359 9.43359C9.43359 8.14133 10.4851 7.08984 11.7773 7.08984L22.9688 7.08984ZM2.40234 22.3828L2.40234 4.6875C2.40234 2.10274 4.50508 0 7.08984 0L20.0977 0C20.7449 0 21.2695 0.524597 21.2695 1.17187C21.2695 1.81915 20.7449 2.34375 20.0977 2.34375L7.08984 2.34375C5.79758 2.34375 4.74609 3.39523 4.74609 4.6875L4.74609 22.3828C4.74609 23.0301 4.2215 23.5547 3.57422 23.5547C2.92694 23.5547 2.40234 23.0301 2.40234 22.3828Z" fill="black" fill-opacity="0.24"/>
</svg>
