<svg width="32" height="31" viewBox="0 0 32 31" fill="none" xmlns="http://www.w3.org/2000/svg">
<path d="M20.2199 18.624C20.2468 18.3817 20.142 18.1466 19.9452 18.0104L16.881 15.8894L21.0689 9.83902C21.2804 9.53351 21.2098 9.11792 20.9114 8.91136C20.613 8.7048 20.1992 8.7851 19.9877 9.0906L15.7998 15.1409L12.7356 13.0199C12.5381 12.8832 12.281 12.8679 12.0645 12.979C11.8466 13.089 11.7039 13.3089 11.6904 13.5517L11.2416 21.9032C11.2298 22.1329 11.3346 22.3496 11.5206 22.4783C11.7066 22.607 11.9463 22.6289 12.1571 22.5369L19.8155 19.1758C19.9326 19.1237 20.0317 19.0406 20.1027 18.938C20.1661 18.8465 20.2068 18.7383 20.2199 18.624" fill="#29E088"/>
</svg>
