<svg width="20" height="25" viewBox="0 0 20 25" fill="none" xmlns="http://www.w3.org/2000/svg">
<path d="M10.0016 25C11.4518 25 12.6383 23.8462 12.6383 22.4359H7.36493C7.36493 23.8462 8.53826 25 10.0016 25ZM17.9117 17.3077V10.8974C17.9117 6.96155 15.7496 3.66668 11.9791 2.79488V1.92309C11.9791 0.858983 11.0959 8.58307e-06 10.0016 8.58307e-06C8.90739 8.58307e-06 8.0241 0.858983 8.0241 1.92309V2.79488C4.24044 3.66668 2.09153 6.94873 2.09153 10.8974V17.3077L0.39086 18.9615C-0.439699 19.7692 0.140374 21.1539 1.3137 21.1539H18.6764C19.8497 21.1539 20.4429 19.7692 19.6124 18.9615L17.9117 17.3077Z" fill="#CACACA"/>
</svg>
