<svg width="31" height="31" viewBox="0 0 31 31" fill="none" xmlns="http://www.w3.org/2000/svg">
<path d="M11.3016 12.376C11.2747 12.6183 11.3795 12.8534 11.5763 12.9896L14.6405 15.1106L10.4525 21.161C10.2411 21.4665 10.3116 21.8821 10.6101 22.0886C10.9085 22.2952 11.3223 22.2149 11.5338 21.9094L15.7217 15.8591L18.7859 17.9801C18.9834 18.1168 19.2405 18.1321 19.457 18.021C19.6749 17.911 19.8176 17.6911 19.8311 17.4483L20.2799 9.0968C20.2917 8.86708 20.1869 8.65042 20.0009 8.52169C19.8149 8.39297 19.5752 8.37113 19.3644 8.46314L11.706 11.8242C11.5889 11.8763 11.4898 11.9594 11.4188 12.062C11.3554 12.1535 11.3146 12.2617 11.3016 12.376" fill="#FF3234"/>
</svg>
