<svg width="21" height="21" viewBox="0 0 21 21" fill="none" xmlns="http://www.w3.org/2000/svg">
<g clip-path="url(#clip0_496_2003)">
<path d="M20.1262 10.3362V9.70448L21.0003 9.25231C20.77 7.2915 20.004 5.49514 18.8517 4.01295L17.8952 4.31749L17.4485 3.87081L17.1807 3.603L16.734 3.15632L17.0413 2.19016C15.568 1.0283 13.7782 0.250294 11.8222 0.00583677L11.3467 0.924956H10.7149H10.3359H9.70414L9.22587 0C7.26918 0.234844 5.47695 1.00324 3.99922 2.15617L4.31749 3.15632L3.87081 3.603L3.603 3.87081L3.15632 4.31749L2.15617 3.99922C1.00324 5.47729 0.234844 7.26952 0 9.22587L0.924956 9.70414V10.3359V10.7149V11.3467L0.00583677 11.8222C0.249951 13.7779 1.0283 15.5677 2.19016 17.0413L3.15632 16.734L3.603 17.1807L3.87081 17.4485L4.31749 17.8952L4.01295 18.8517C5.4948 20.004 7.2915 20.7703 9.25231 21.0003L9.70448 20.1262H10.3362H10.7153H11.347L11.7961 20.9945C13.7559 20.7549 15.5505 19.9793 17.0279 18.8184L16.734 17.8952L17.1807 17.4485L17.4485 17.1807L17.8952 16.734L18.8184 17.0279C19.9793 15.5505 20.7549 13.7562 20.9945 11.7961L20.1262 11.347V10.7153V10.3362Z" fill="url(#paint0_linear_496_2003)"/>
<path d="M6.93209 7.4082H4.66846L7.8519 16.3668L9.96206 13.6226L8.10391 8.24285C7.93087 7.7433 7.46049 7.4082 6.93209 7.4082Z" fill="white"/>
<path d="M11.2181 12.5612L8.31519 16.3664H11.2136C11.6888 16.3664 12.1214 16.0914 12.3226 15.6608L16.9689 5.72461L11.2181 12.5612Z" fill="white"/>
</g>
<defs>
<linearGradient id="paint0_linear_496_2003" x1="-1.95669" y1="-5.12937" x2="18.0059" y2="21.6128" gradientUnits="userSpaceOnUse">
<stop stop-color="#3A7BD5"/>
<stop offset="1" stop-color="#1F9898"/>
</linearGradient>
<clipPath id="clip0_496_2003">
<rect width="21" height="21" fill="white"/>
</clipPath>
</defs>
</svg>
