<svg width="25" height="23" viewBox="0 0 25 23" fill="none" xmlns="http://www.w3.org/2000/svg">
<path fill-rule="evenodd" clip-rule="evenodd" d="M19.4706 7.12801H24.5832C24.5832 3.02305 22.1235 0.625 17.9561 0.625H7.04354C2.87613 0.625 0.416504 3.02305 0.416504 7.07565V15.9244C0.416504 19.977 2.87613 22.375 7.04354 22.375H17.9561C22.1235 22.375 24.5832 19.977 24.5832 15.9244V15.5474H19.4706C17.0978 15.5474 15.1743 13.672 15.1743 11.3586C15.1743 9.04526 17.0978 7.1699 19.4706 7.1699V7.12801ZM19.4707 8.92917H23.6811C24.1794 8.92917 24.5833 9.32299 24.5833 9.8088V12.8666C24.5775 13.35 24.1769 13.7406 23.6811 13.7462H19.5674C18.3662 13.762 17.3158 12.9601 17.0433 11.8194C16.9068 11.1113 17.0984 10.3806 17.5666 9.8231C18.0348 9.26563 18.7318 8.93843 19.4707 8.92917ZM19.6532 12.144H20.0506C20.5607 12.144 20.9743 11.7408 20.9743 11.2434C20.9743 10.7461 20.5607 10.3429 20.0506 10.3429H19.6532C19.4092 10.3401 19.1742 10.4326 19.0007 10.5998C18.8271 10.7671 18.7294 10.9951 18.7295 11.233C18.7294 11.7321 19.1413 12.1383 19.6532 12.144ZM6.14143 7.12801H12.9618C13.472 7.12801 13.8855 6.72481 13.8855 6.22743C13.8855 5.73006 13.472 5.32685 12.9618 5.32685H6.14143C5.63545 5.32682 5.22361 5.72368 5.21773 6.21696C5.2177 6.71606 5.62955 7.12227 6.14143 7.12801Z" fill="white" fill-opacity="0.6"/>
</svg>
